<svg width="90" height="89" fill="none" xmlns="http://www.w3.org/2000/svg"><path d="M79.21 72.092a48.91 48.91 0 009.75-26.12c.445-8.824-2.822-18.329-7.426-25.747-5.41-8.633-13.494-13.837-22.904-17.34C48.637-.796 38.474-.04 28.768 3.95h-.075c-8.38 3.321-15.392 8.515-20.22 16.232C3.839 27.632.56 37.095 1.049 45.93a48.767 48.767 0 008.88 25.099c5.303 7.45 12.93 11.995 21.407 15.124 16.4 6.067 37.256.022 47.875-14.06zm-22.574 8.1a29211.23 29211.23 0 00-9.463-24.95c.36-.925.71-1.862 1.061-2.798l2.716 1.234c3.642 8.125 7.277 16.25 10.905 24.374l.064.096a38.325 38.325 0 01-5.24 2.225c-.013-.05-.027-.1-.043-.15v-.031zM8.187 52.262c-.19-.798-.35-1.607-.487-2.405 2.98-1.064 5.94-2.129 8.89-3.331a2.122 2.122 0 001.427-2.012 2.134 2.134 0 00-1.428-2.012 271.437 271.437 0 00-8.943-3.353c.128-.809.276-1.617.457-2.427.06.039.124.07.19.096l20.156 7.696-20.155 7.695-.107.053zm1.21-19.467h-.18a39.367 39.367 0 012.238-5.247h.085l24.293 10.941 1.22 2.736-2.79 1.064-24.866-9.494zm5.58-10.878c2.8 1.33 5.622 2.629 8.486 3.874a2.115 2.115 0 002.443-.402 2.131 2.131 0 00.4-2.45 264.787 264.787 0 00-3.85-8.515c.657-.49 1.326-.958 2.015-1.405l8.816 19.712-19.657-8.845h-.075c.51-.617.923-1.288 1.422-1.937v-.032zm15.329-11.89c.148-.063.265-.138.392-.201.128-.064.234-.064.35-.117.743-.32 1.486-.607 2.239-.863 3.161 8.31 6.315 16.619 9.462 24.928l-1.06 2.81-2.727-1.235-10.884-24.331c.736-.34 1.478-.66 2.228-.958v-.032zm9.388-2.745c1.061 2.937 2.122 5.864 3.268 8.76a2.128 2.128 0 002.005 1.432 2.116 2.116 0 002.005-1.432 263.242 263.242 0 003.278-8.803c.816.107 1.623.234 2.429.394l-.053.085c-2.546 6.734-5.1 13.475-7.66 20.223l-7.67-20.223c.796-.138 1.592-.287 2.398-.404v-.032zM65.58 12.72c.7.447 1.379.915 2.047 1.405a243.46 243.46 0 00-4 8.813 2.135 2.135 0 00.402 2.45 2.12 2.12 0 002.442.402 249.65 249.65 0 008.635-3.948c.467.67.912 1.351 1.347 2.054l-.159.053-19.657 8.845 8.826-19.712c.045-.108.084-.218.117-.33v-.032zm12.815 14.827a43.31 43.31 0 012.121 5.247h-.074L55.66 42.289l-2.79-1.064 1.22-2.736 24.303-10.941zm3.85 11.612c-2.991 1.064-5.962 2.129-8.9 3.342a2.123 2.123 0 00-1.428 2.012 2.134 2.134 0 001.428 2.011 254.556 254.556 0 008.9 3.343 36.771 36.771 0 01-.488 2.395l-.127-.054-20.156-7.695 20.156-7.696h.117c.212.777.35 1.576.498 2.374v-.032zm-3.85 22.352L54.09 50.581c-.403-.916-.817-1.83-1.22-2.736l2.79-1.064 24.866 9.494a50.418 50.418 0 01-2.132 5.237zM66.47 63.268a2.116 2.116 0 00-2.442.402 2.132 2.132 0 00-.401 2.45 259.13 259.13 0 003.893 8.58 37.9 37.9 0 01-2.016 1.405.607.607 0 010-.128c-2.949-6.57-5.89-13.142-8.826-19.712l19.657 8.845h.117a32.735 32.735 0 01-1.379 2.043 443.926 443.926 0 00-8.603-3.885zM44.256 46.132l-.605-.266-.276-.607-.265-.713.265-.713.276-.607.605-.277.71-.266.711.266.605.277.265.607c.096.234.18.479.276.713-.095.234-.18.479-.276.713l-.265.607-.605.266-.71.276-.711-.276zm17.748-35.37c0 .085-.096.15-.138.245-3.628 8.118-7.264 16.243-10.906 24.374l-2.715 1.235-1.061-2.81a17968.31 17968.31 0 009.462-24.949c.023-.059.04-.12.053-.18a37.478 37.478 0 015.305 2.085zM9.354 56.275l24.866-9.494 2.79 1.064c-.403.905-.806 1.82-1.22 2.736L11.497 61.512h-.063a47.53 47.53 0 01-2.08-5.237zM24.408 76.18a40.275 40.275 0 01-2.058-1.362 237.114 237.114 0 003.946-8.696 2.135 2.135 0 00-.401-2.45 2.119 2.119 0 00-2.442-.403 254.717 254.717 0 00-8.667 3.97 38.285 38.285 0 01-1.347-2.064l.19-.064 19.658-8.845-8.816 19.712a1.137 1.137 0 00-.063.202zm3.607 1.98v-.075A12696.29 12696.29 0 0038.92 53.71l2.726-1.235c.35.937.71 1.874 1.061 2.8a40226.23 40226.23 0 01-9.463 24.949.712.712 0 010 .074 45.628 45.628 0 01-5.23-2.14zm9.229 3.289a.511.511 0 010-.107l7.67-20.223c2.56 6.741 5.113 13.482 7.659 20.223l.095.181c-.795.181-1.602.33-2.418.458-1.061-3.012-2.122-5.992-3.331-8.962a2.128 2.128 0 00-2.005-1.433 2.116 2.116 0 00-2.005 1.433 273.352 273.352 0 00-3.331 8.92l-1.061-.192c-.382-.075-.828-.192-1.273-.298z" stroke="#fff" stroke-miterlimit="10"/></svg>