<svg width="350" height="183" fill="none" xmlns="http://www.w3.org/2000/svg"><path fill="#C19E5C" fill-opacity=".5" d="M0 0h350v183H0z"/><g clip-path="url(#clip0_58_345)"><path d="M96.406 89.141c-2.304-3.348-4.552-6.983-6.8-10.646-2.249-3.663-4.7-7.354-7.31-10.777a69.385 69.385 0 00-8.466-9.416 39.922 39.922 0 00-9.53-6.475c-6.385-2.941-12.77-3.182-17.858-1.23 1.962-5.088 1.721-11.47-1.23-17.843a39.557 39.557 0 00-6.478-9.537 69.957 69.957 0 00-9.41-8.464c-3.47-2.654-7.17-5.032-10.871-7.344-3.701-2.313-7.3-4.505-10.64-6.799a4.83 4.83 0 00-4.701 0c-3.34 2.294-6.977 4.542-10.64 6.8-3.665 2.257-7.403 4.69-10.826 7.289a69.39 69.39 0 00-9.42 8.463 39.507 39.507 0 00-6.476 9.537c-2.943 6.383-3.192 12.756-1.23 17.843-5.09-1.96-11.474-1.71-17.859 1.23a39.975 39.975 0 00-9.53 6.475 69.893 69.893 0 00-8.429 9.472c-2.6 3.47-4.987 7.16-7.3 10.823-2.313 3.663-4.497 7.298-6.8 10.647a4.874 4.874 0 000 4.69c2.303 3.348 4.551 6.974 6.8 10.646 2.248 3.672 4.7 7.4 7.3 10.813a69.37 69.37 0 008.466 9.416 39.617 39.617 0 009.53 6.475c6.385 2.942 12.77 3.192 17.858 1.24-1.961 5.078-1.72 11.461 1.23 17.843a39.657 39.657 0 006.478 9.527 69.246 69.246 0 009.41 8.464c3.47 2.599 7.161 4.986 10.825 7.298 3.664 2.313 7.3 4.505 10.64 6.799a4.899 4.899 0 004.701 0c3.34-2.294 6.976-4.551 10.64-6.799 3.665-2.247 7.403-4.699 10.826-7.298a68.814 68.814 0 009.42-8.464 39.465 39.465 0 006.476-9.527c2.942-6.382 3.192-12.765 1.23-17.843 5.09 1.952 11.474 1.711 17.858-1.24a39.617 39.617 0 009.53-6.475 69.326 69.326 0 008.476-9.462c2.6-3.469 4.987-7.16 7.3-10.823 2.313-3.663 4.497-7.289 6.8-10.637a4.5 4.5 0 00.602-2.35 4.449 4.449 0 00-.592-2.34zm-123.911-59.69A59.59 59.59 0 01-12.248 15.18c3.008-2.072 6.135-3.876 9.16-5.615l4.442-2.488a100.335 100.335 0 004.145-2.359 99.93 99.93 0 004.145 2.358l4.45 2.488c3.017 1.74 6.144 3.543 9.152 5.615A59.443 59.443 0 0138.503 29.45c3.748 5.245 5.663 10.758 5.385 15.559a15.073 15.073 0 01-2.026 6.743 21.712 21.712 0 01-5.126 5.8 49.642 49.642 0 01-5.922.832 25.678 25.678 0 006.348-9.398 17.757 17.757 0 001.064-5.642 16.486 16.486 0 00-.204-2.997 16.042 16.042 0 00-.768-3.071c-1.924-5.55-6.329-10.508-11.788-14.578a88.218 88.218 0 00-8.734-5.716l-9.17-5.199a3.999 3.999 0 00-4.126 0l-9.17 5.19a89.049 89.049 0 00-8.753 5.716c-5.468 4.07-9.872 9.046-11.769 14.587a17.735 17.735 0 00-.925 6.077 18.06 18.06 0 001.064 5.643 25.613 25.613 0 006.338 9.388 49.64 49.64 0 01-5.922-.832 21.712 21.712 0 01-5.126-5.8 15.194 15.194 0 01-2.026-6.743c-.315-4.8 1.6-10.314 5.348-15.558zm108.968 62.03c-2.461 4.69-4.83 9.417-7.624 13.727a42.303 42.303 0 01-9.734 10.98 17.12 17.12 0 01-13.879 3.441c-4.413-.925-8.234-3.635-11.63-7.187.055-.62.092-1.249.157-1.85.139-.925.25-1.85.407-2.673a8.454 8.454 0 004.303 2.775 5.672 5.672 0 003.497-.093 4.847 4.847 0 002.582-2.09c.123-.203.234-.413.333-.629a6.896 6.896 0 008.262.36 7.038 7.038 0 002.84-4.301c.18-.808.21-1.642.084-2.46a6.759 6.759 0 00-.721-2.303 7.006 7.006 0 004.922-1.85 7.4 7.4 0 001.647-2.424 9.053 9.053 0 000-6.678 7.4 7.4 0 00-1.647-2.415 7.052 7.052 0 00-4.922-1.85 7.26 7.26 0 00.638-4.763 6.992 6.992 0 00-2.84-4.292c-2.841-1.998-6.006-1.295-8.263.36a5.985 5.985 0 00-.333-.638 5.373 5.373 0 00-1.102-1.267 5.493 5.493 0 00-1.47-.823 5.646 5.646 0 00-3.535-.195 8.651 8.651 0 00-4.303 2.775c-.157-.87-.268-1.776-.398-2.682-.074-.63-.11-1.249-.166-1.85 3.405-3.58 7.217-6.29 11.63-7.187a17.26 17.26 0 0113.88 3.431A41.53 41.53 0 0173.82 77.8c2.775 4.311 5.153 9.047 7.614 13.737l.028-.056zm-45.736 30.22a50.955 50.955 0 00-15.923-.074c-2.49.333-5.487.555-8.069-.555-2.581-1.11-4.626-3.533-5.246-7.77a21.79 21.79 0 007.356-1.619 11.326 11.326 0 003.359 3.895 8.677 8.677 0 001.961.989c.66.21 1.344.334 2.036.37a9.516 9.516 0 006.948-2.775 9.636 9.636 0 002.776-6.946 8.134 8.134 0 00-.379-2.035 8.435 8.435 0 00-.98-1.961 11.33 11.33 0 00-3.896-3.358 21.787 21.787 0 001.619-7.4c4.228.666 6.68 2.664 7.763 5.245 1.083 2.58.925 5.55.564 8.066a50.627 50.627 0 00.111 15.928zm-60.382-15.919c-.333-2.488-.555-5.485.555-8.057 1.11-2.571 3.544-4.625 7.772-5.254a21.787 21.787 0 001.62 7.4 11.419 11.419 0 00-3.896 3.358 8.435 8.435 0 00-.98 1.961 8.13 8.13 0 00-.38 2.035 9.51 9.51 0 002.776 6.947 9.626 9.626 0 006.948 2.775 8.228 8.228 0 002.045-.38c.69-.24 1.347-.57 1.952-.98a11.238 11.238 0 003.36-3.894 21.783 21.783 0 007.355 1.618c-.657 4.237-2.665 6.688-5.246 7.77-2.582 1.083-5.552.925-8.069.555a50.956 50.956 0 00-15.923.074c.877-5.27.914-10.646.11-15.928zm-45.81-14.3c2.461-4.681 4.83-9.408 7.624-13.718a42.213 42.213 0 019.734-10.97 17.11 17.11 0 0113.879-3.432c4.413.925 8.235 3.626 11.63 7.187-.055.62-.092 1.249-.157 1.85-.139.925-.25 1.85-.407 2.673a8.43 8.43 0 00-4.275-2.729 5.451 5.451 0 00-4.968.925 5.68 5.68 0 00-1.11 1.277 5.858 5.858 0 00-.334.629c-2.257-1.647-5.422-2.35-8.262-.352a6.992 6.992 0 00-2.841 4.292 7.26 7.26 0 00.639 4.764 7.052 7.052 0 00-4.923 1.85 7.4 7.4 0 00-1.647 2.414 9.053 9.053 0 000 6.679c.382.91.942 1.733 1.647 2.423a7.005 7.005 0 004.922 1.85 6.764 6.764 0 00-.721 2.303 6.688 6.688 0 00.083 2.461 7.039 7.039 0 002.84 4.301 6.891 6.891 0 008.263-.361c.098.217.21.427.333.629.296.482.668.914 1.101 1.277.446.348.942.626 1.471.823 1.13.4 2.36.429 3.507.083a8.655 8.655 0 004.303-2.775c.157.87.268 1.776.407 2.683.065.629.102 1.258.157 1.85-3.405 3.57-7.217 6.29-11.63 7.178a17.199 17.199 0 01-13.88-3.432 41.528 41.528 0 01-9.742-10.97c-2.776-4.311-5.154-9.047-7.615-13.737l-.028.075zm40.499-11.22a19.998 19.998 0 00-5.256 0 9.498 9.498 0 01-.314-1.666 5.104 5.104 0 01.138-1.692c.297-1.036 1.092-1.72 2.637-1.406a3.423 3.423 0 012.619 2.025c.326.876.387 1.828.176 2.738zm-13.5 18.6a12.742 12.742 0 004.33 2.85.86.86 0 000 .222 4.059 4.059 0 01-1.85 3.163 3.284 3.284 0 01-3.794-.101 3.304 3.304 0 01-1.304-3.506 3.697 3.697 0 012.618-2.627zm-2.702-4.68a4.275 4.275 0 01-4.043.796 3.7 3.7 0 010-6.984 4.276 4.276 0 014.043.787 10.294 10.294 0 000 5.401zm0-12.7a3.21 3.21 0 01.074-1.85 3.246 3.246 0 011.231-1.628 3.285 3.285 0 013.794-.092 4.033 4.033 0 011.85 3.163.86.86 0 000 .213 12.87 12.87 0 00-4.33 2.85 3.701 3.701 0 01-2.61-2.656h-.009zm10.622 22.912c.058-.56.166-1.114.324-1.655a20.38 20.38 0 005.246 0 4.54 4.54 0 01-.175 2.775 3.497 3.497 0 01-2.618 2.044 1.97 1.97 0 01-1.639-.087 1.97 1.97 0 01-.999-1.301 5.233 5.233 0 01-.13-1.776h-.009zm7.079-4.56a15.68 15.68 0 01-9.253-1.258 7.643 7.643 0 01-4.794-7.09 7.639 7.639 0 014.794-7.09 15.53 15.53 0 019.253-1.258c.252 1.36.774 2.656 1.536 3.811-2.06-.206-4.14.021-6.107.666a5.394 5.394 0 00-2.175 1.47 3.782 3.782 0 000 4.802 5.552 5.552 0 002.166 1.47c1.97.64 4.053.867 6.116.666a10.487 10.487 0 00-1.527 3.811h-.01zm-3.701-8.325c.055-2.433 5.06-2.257 7.55-2.053a12.547 12.547 0 004.219 2.053 12.466 12.466 0 00-4.22 2.054c-2.479.185-7.475.36-7.53-2.082l-.02.028zm7.402-30.22c5.27.864 10.645.89 15.923.075 2.49-.333 5.487-.555 8.069.564 2.581 1.12 4.626 3.534 5.246 7.76a22.044 22.044 0 00-7.356 1.62 11.416 11.416 0 00-3.359-3.895 8.325 8.325 0 00-1.961-.98 8.145 8.145 0 00-2.036-.38 9.552 9.552 0 00-6.948 2.775 9.667 9.667 0 00-2.776 6.947 8.08 8.08 0 00.38 2.044c.256.684.602 1.33 1.026 1.924a11.325 11.325 0 003.896 3.358 21.787 21.787 0 00-1.62 7.4c-4.228-.666-6.68-2.664-7.763-5.254-1.082-2.59-.925-5.55-.564-8.066a50.628 50.628 0 00-.12-15.938l-.037.047zm60.382 15.92c.334 2.497.556 5.485-.555 8.066-1.11 2.58-3.544 4.625-7.772 5.254a21.787 21.787 0 00-1.62-7.4 11.416 11.416 0 003.896-3.358 8.39 8.39 0 00.981-1.952c.213-.662.34-1.35.38-2.044a9.59 9.59 0 00-9.697-9.74 8.201 8.201 0 00-2.045.37 8.41 8.41 0 00-1.953.98 11.415 11.415 0 00-3.358 3.895 22.03 22.03 0 00-7.356-1.62c.657-4.226 2.665-6.677 5.246-7.76 2.582-1.082 5.552-.925 8.068-.564 5.279.815 10.653.79 15.924-.074a50.63 50.63 0 00-.102 15.92l-.037.027zm-10.64 24.151a6.02 6.02 0 012.581 5.55 7.595 7.595 0 01-6.67 6.66 6.027 6.027 0 01-5.552-2.58 22.119 22.119 0 005.607-4.052 22.486 22.486 0 004.07-5.605l-.036.027zm-2.822-2.996a18.05 18.05 0 01-9.762 9.749 17.999 17.999 0 01-19.597-3.904 17.977 17.977 0 01.652-26.027 17.988 17.988 0 0129.868 10.665c.482 3.219.08 6.508-1.161 9.517zM10.05 123.892a10.714 10.714 0 003.812 1.536 15.583 15.583 0 01-1.249 9.25 7.63 7.63 0 01-7.092 4.808 7.637 7.637 0 01-7.092-4.808 15.555 15.555 0 01-1.258-9.25 10.382 10.382 0 003.812-1.536 14.914 14.914 0 00.666 6.114c.306.829.81 1.569 1.471 2.156a3.768 3.768 0 004.793 0 5.39 5.39 0 001.471-2.165 14.87 14.87 0 00.648-6.105h.018zm6.69 3.044a4.546 4.546 0 012.776.175 3.501 3.501 0 012.045 2.618 1.971 1.971 0 01-1.388 2.645 5.536 5.536 0 01-1.712.13 9.43 9.43 0 01-1.665-.315 19.97 19.97 0 00-.075-5.272l.019.019zm2.387 11.099a3.401 3.401 0 01.35 2.926 3.392 3.392 0 01-2.07 2.097 3.173 3.173 0 01-1.851.074 3.705 3.705 0 01-2.628-2.692 12.85 12.85 0 002.85-4.329c.073.01.148.01.222 0a4.034 4.034 0 013.109 1.906l.018.018zm-10.113 9.149a3.7 3.7 0 01-5.634 1.794 3.7 3.7 0 01-1.352-1.794 4.256 4.256 0 01.787-4.043c1.767.494 3.636.494 5.403 0a4.287 4.287 0 01.778 4.033l.018.01zM-5.734 132.2a9.92 9.92 0 01-1.665.314 5.388 5.388 0 01-1.693-.129 2.006 2.006 0 01-1.3-1.006 1.999 1.999 0 01-.107-1.64 3.422 3.422 0 012.027-2.618 4.766 4.766 0 012.775-.175 19.968 19.968 0 00-.055 5.244l.018.01zm-2.368 5.836a4.084 4.084 0 013.164-1.85c.074.01.148.01.222 0a12.774 12.774 0 002.85 4.329 3.696 3.696 0 01-2.619 2.692 3.14 3.14 0 01-1.85-.074 3.247 3.247 0 01-1.629-1.23 3.303 3.303 0 01-.157-3.885l.019.018zm13.601-8.917c-2.443 0-2.267-5.059-2.054-7.547a12.553 12.553 0 002.054-4.218 12.413 12.413 0 002.054 4.208c.213 2.507.389 7.511-2.054 7.557zm-9.845-18.129a6.018 6.018 0 01-5.551 2.58 7.606 7.606 0 01-6.662-6.66 6.013 6.013 0 012.581-5.55 22.484 22.484 0 004.062 5.606 22.123 22.123 0 005.57 4.024zm-9.669-29.35a6.031 6.031 0 01-2.581-5.55 7.593 7.593 0 016.67-6.67 6.026 6.026 0 015.553 2.59 21.892 21.892 0 00-5.58 4.033 22.31 22.31 0 00-4.062 5.597zM.965 59.079a10.56 10.56 0 00-3.793-1.535 15.6 15.6 0 011.249-9.25A7.64 7.64 0 019.793 44.81a7.64 7.64 0 012.812 3.483 15.517 15.517 0 011.221 9.25 10.54 10.54 0 00-3.812 1.535 14.852 14.852 0 00-.666-6.105 5.393 5.393 0 00-1.471-2.164 3.868 3.868 0 00-2.396-.86 3.803 3.803 0 00-2.397.869 5.365 5.365 0 00-1.471 2.155 14.916 14.916 0 00-.648 6.105zm-6.69-3.053a4.544 4.544 0 01-2.775-.175 3.48 3.48 0 01-2.045-2.618 1.96 1.96 0 011.388-2.636 5.793 5.793 0 011.712-.139c.563.063 1.12.17 1.665.324a19.9 19.9 0 00.056 5.245zm-2.387-11.1a3.283 3.283 0 01.093-3.801 3.174 3.174 0 011.628-1.221 3.1 3.1 0 011.851-.074 3.701 3.701 0 012.628 2.682 12.866 12.866 0 00-2.85 4.33h-.222a4.043 4.043 0 01-3.128-1.897v-.018zM2.002 35.77a3.7 3.7 0 016.985 0 4.244 4.244 0 01-.786 4.042 10.32 10.32 0 00-5.404 0 4.273 4.273 0 01-.795-4.023v-.019zM16.75 50.763a9.002 9.002 0 011.666-.323 5.358 5.358 0 011.693.138 1.99 1.99 0 011.406 2.636 3.423 3.423 0 01-2.026 2.628 4.682 4.682 0 01-2.776.166 19.9 19.9 0 00.037-5.226v-.019zm2.369-5.846a4.06 4.06 0 01-3.165 1.85h-.222a12.865 12.865 0 00-2.85-4.329 3.7 3.7 0 012.62-2.691 3.212 3.212 0 011.85.074 3.247 3.247 0 011.628 1.23 3.302 3.302 0 01.139 3.885v-.019zm-13.62 8.926c2.443.056 2.267 5.06 2.054 7.548A12.503 12.503 0 005.5 65.62a12.541 12.541 0 00-2.055-4.22c-.213-2.498-.389-7.502 2.054-7.558zm9.845 18.14a6.022 6.022 0 015.551-2.59 7.597 7.597 0 016.662 6.669 6.03 6.03 0 01-2.581 5.55 22.311 22.311 0 00-4.025-5.569 21.892 21.892 0 00-5.607-4.06zm11.103-13.56c-.63-.056-1.25-.093-1.85-.158-.926-.139-1.851-.25-2.675-.398a8.51 8.51 0 002.776-4.31 5.669 5.669 0 00-.092-3.497 5.549 5.549 0 00-.815-1.461 5.088 5.088 0 00-1.276-1.11c-.2-.13-.411-.245-.63-.342a6.89 6.89 0 00.361-8.26 7.04 7.04 0 00-4.302-2.84 6.895 6.895 0 00-2.461-.084 6.7 6.7 0 00-2.304.722 7.019 7.019 0 00-1.85-4.912 7.45 7.45 0 00-2.425-1.656 9.061 9.061 0 00-6.68 0 7.403 7.403 0 00-2.415 1.656 6.992 6.992 0 00-1.85 4.912 6.637 6.637 0 00-2.305-.722 6.895 6.895 0 00-2.46.084 7.041 7.041 0 00-4.303 2.84 6.89 6.89 0 00.36 8.26 5.937 5.937 0 00-.629.342 5.217 5.217 0 00-1.277 1.1c-.346.446-.62.942-.814 1.471a5.668 5.668 0 00-.092 3.497 8.574 8.574 0 002.775 4.301c-.87.157-1.776.268-2.683.407-.629.065-1.249.102-1.85.157-3.572-3.404-6.292-7.215-7.18-11.618a17.2 17.2 0 013.432-13.875 41.699 41.699 0 0110.974-9.74c4.312-2.775 9.049-5.152 13.74-7.603 4.682 2.451 9.42 4.819 13.731 7.612a42.318 42.318 0 0110.983 9.731 17.11 17.11 0 013.442 13.875c-1.055 4.413-3.784 8.224-7.337 11.664l-.019-.046zm-41.933 66.127c.63 0 1.25.083 1.85.157.926.13 1.851.241 2.675.398a8.445 8.445 0 00-2.776 4.301 5.448 5.448 0 00.925 4.967 5.46 5.46 0 001.277 1.11c.204.13.416.232.63.343a6.887 6.887 0 00-.362 8.26 7.068 7.068 0 004.303 2.83 7.337 7.337 0 004.765-.629 7.037 7.037 0 001.85 4.912 7.6 7.6 0 002.425 1.656 9.06 9.06 0 006.68 0 7.552 7.552 0 002.415-1.656 7 7 0 001.85-4.912 6.624 6.624 0 002.304.713 6.703 6.703 0 002.462-.084 7.067 7.067 0 004.302-2.83 6.91 6.91 0 00-.36-8.27 5.42 5.42 0 001.906-1.433 5.49 5.49 0 00.925-4.977 8.66 8.66 0 00-2.776-4.301c.87-.157 1.776-.268 2.683-.398.63-.074 1.25-.111 1.85-.157 3.572 3.404 6.292 7.206 7.18 11.618a17.182 17.182 0 01-3.432 13.875 41.535 41.535 0 01-10.974 9.74c-4.312 2.775-9.049 5.161-13.74 7.613-4.682-2.452-9.42-4.829-13.73-7.622a42.167 42.167 0 01-10.836-9.731 17.104 17.104 0 01-3.442-13.875c.907-4.412 3.637-8.233 7.19-11.618h-.019zM35.58 93.535a12.547 12.547 0 00-4.219-2.053 12.464 12.464 0 004.22-2.054c2.507-.213 7.503-.388 7.559 2.053.055 2.443-5.052 2.267-7.541 2.054h-.019zm8.43 1.85a5.553 5.553 0 002.165-1.48 3.764 3.764 0 000-4.791 5.395 5.395 0 00-2.166-1.471 14.909 14.909 0 00-6.116-.666 10.55 10.55 0 001.546-3.811c3.14-.54 6.37-.1 9.252 1.258a7.642 7.642 0 013.484 11.369 7.643 7.643 0 01-3.484 2.811 15.667 15.667 0 01-9.252 1.258 10.301 10.301 0 00-1.555-3.839 15.03 15.03 0 006.144-.666l-.019.028zm-2.887-17.843a3.496 3.496 0 012.618-2.044 1.963 1.963 0 012.637 1.396c.14.556.188 1.131.139 1.702a9.48 9.48 0 01-.324 1.665 19.919 19.919 0 00-5.246 0 4.55 4.55 0 01.194-2.747l-.018.028zm16.016 23.976c.16.61.134 1.254-.074 1.85a3.253 3.253 0 01-1.23 1.628 3.284 3.284 0 01-3.794.101 4.024 4.024 0 01-1.85-3.163.86.86 0 000-.222 12.741 12.741 0 004.33-2.85 3.702 3.702 0 012.636 2.628l-.018.028zm0-7.308a10.292 10.292 0 000-5.402 4.275 4.275 0 014.043-.795 3.7 3.7 0 010 6.993 4.276 4.276 0 01-4.015-.823l-.028.027zm0-12.71a3.7 3.7 0 01-2.692 2.628 12.87 12.87 0 00-4.33-2.85.85.85 0 000-.212 4.033 4.033 0 011.85-3.163 3.276 3.276 0 013.793.092 3.172 3.172 0 011.222 1.628c.246.584.307 1.23.175 1.85l-.018.028zm-10.622 22.922a5.16 5.16 0 01-.139 1.702c-.296 1.027-1.092 1.721-2.637 1.397a3.39 3.39 0 01-2.618-2.026 4.753 4.753 0 01-.176-2.775 20.36 20.36 0 005.255 0c.161.547.273 1.108.334 1.674l-.019.028zm-80.757 23.421a15.192 15.192 0 01-6.754 2.016c-4.803.278-10.308-1.637-15.554-5.383a59.444 59.444 0 01-14.277-15.253c-2.073-3.006-3.877-6.124-5.626-9.148l-2.48-4.45a134.916 134.916 0 00-2.368-4.144 85.95 85.95 0 002.369-4.143l2.48-4.44c1.748-3.025 3.552-6.152 5.625-9.158a59.587 59.587 0 0114.276-15.27c5.246-3.7 10.752-5.662 15.554-5.384a15.2 15.2 0 016.754 2.026 21.73 21.73 0 015.801 5.134c.393 1.955.672 3.932.833 5.92a25.777 25.777 0 00-9.4-6.355 17.816 17.816 0 00-5.645-1.064 16.505 16.505 0 00-2.998.203 16.773 16.773 0 00-3.071.768c-5.552 1.924-10.511 6.327-14.583 11.785a88.218 88.218 0 00-5.727 8.732 3537.973 3537.973 0 01-5.19 9.175 4.216 4.216 0 00-.574 2.054c.013.725.21 1.435.573 2.063l5.191 9.176a86.672 86.672 0 005.718 8.741c4.044 5.494 9.05 9.925 14.592 11.775a17.73 17.73 0 006.07.925 18.122 18.122 0 005.653-1.064 25.664 25.664 0 009.391-6.336 49.606 49.606 0 01-.833 5.92 21.91 21.91 0 01-5.801 5.18zm72.744 25.678c-3.7 5.254-9.252 10.175-15.257 14.263-3.008 2.072-6.135 3.876-9.16 5.624l-4.442 2.479a90.454 90.454 0 00-4.145 2.368 90.465 90.465 0 00-4.145-2.368l-4.45-2.479c-3.017-1.748-6.144-3.552-9.152-5.624a59.403 59.403 0 01-15.257-14.263c-3.747-5.245-5.663-10.758-5.385-15.559a15.08 15.08 0 012.026-6.752 21.996 21.996 0 015.126-5.8 51.805 51.805 0 015.922-.832 25.743 25.743 0 00-6.347 9.398 17.853 17.853 0 00-1.064 5.651 16.537 16.537 0 00.203 2.997 16.2 16.2 0 00.768 3.071c1.925 5.55 6.329 10.499 11.788 14.578a89.947 89.947 0 008.734 5.717l9.17 5.189a4.366 4.366 0 002.063.583 4.304 4.304 0 002.063-.583l9.17-5.189a85.763 85.763 0 008.753-5.717c5.468-4.07 9.872-9.046 11.77-14.578.659-1.956.972-4.013.924-6.077a18.124 18.124 0 00-1.064-5.652 25.775 25.775 0 00-6.338-9.388c1.989.163 3.966.441 5.922.832a21.995 21.995 0 015.126 5.8 15.195 15.195 0 012.026 6.752c.315 4.801-1.6 10.314-5.348 15.559zM89.93 95.626l-2.48 4.467c-1.748 3.025-3.552 6.151-5.625 9.148a59.428 59.428 0 01-14.277 15.254c-5.246 3.699-10.751 5.66-15.553 5.383a15.19 15.19 0 01-6.709-2.035 22.067 22.067 0 01-5.801-5.134 51.25 51.25 0 01-.833-5.92 25.768 25.768 0 009.4 6.346 18.1 18.1 0 005.645 1.073 17.493 17.493 0 002.998-.213 16.014 16.014 0 003.072-.768c5.551-1.914 10.51-6.317 14.582-11.784a87.258 87.258 0 005.727-8.732c1.721-3.052 3.442-6.096 5.191-9.167a3.976 3.976 0 000-4.116l-5.19-9.176a85.8 85.8 0 00-5.719-8.75c-4.071-5.467-9.049-9.87-14.591-11.766a17.734 17.734 0 00-6.07-.925 18.412 18.412 0 00-5.653 1.063 25.686 25.686 0 00-9.392 6.346c.157-1.988.435-3.965.833-5.92a21.591 21.591 0 015.801-5.134 15.196 15.196 0 016.755-2.016c4.802-.287 10.307 1.628 15.554 5.374A59.587 59.587 0 0181.87 73.777c2.073 3.006 3.877 6.133 5.626 9.158.842 1.507 1.665 2.996 2.48 4.44.814 1.442 1.563 2.83 2.368 4.144-.851 1.285-1.637 2.673-2.415 4.106z" fill="#fff" fill-opacity=".2"/></g><defs><clipPath id="clip0_58_345"><path fill="#fff" d="M0 0h350v183H0z"/></clipPath></defs></svg>