<svg width="350" height="183" viewBox="0 0 350 183" fill="none" xmlns="http://www.w3.org/2000/svg">
<rect width="350" height="183" fill="#C19E5C" fill-opacity="0.5"/>
<g clip-path="url(#clip0_58_345)">
<path d="M96.4062 89.1413C94.1023 85.7928 91.8539 82.1576 89.6055 78.4946C87.3572 74.8317 84.9052 71.1409 82.2959 67.7184C79.7669 64.3282 76.933 61.1763 73.8298 58.302C70.9829 55.6943 67.7728 53.5133 64.2995 51.8271C57.9152 48.8856 51.5309 48.6451 46.442 50.5968C48.4035 45.5093 48.163 39.1269 45.2114 32.7537C43.5298 29.2757 41.3477 26.0627 38.7345 23.217C35.8601 20.1173 32.7106 17.2845 29.3246 14.7533C25.8549 12.0986 22.1538 9.72135 18.4528 7.40887C14.7517 5.09638 11.1524 2.90417 7.81222 0.610188C7.09359 0.210045 6.28466 0 5.46208 0C4.6395 0 3.8305 0.210045 3.11187 0.610188C-0.22833 2.90417 -3.86462 5.15188 -7.52866 7.40887C-11.1927 9.66585 -14.9308 12.0986 -18.3543 14.6978C-21.7455 17.2261 -24.8983 20.0592 -27.7734 23.1615C-30.3872 26.0068 -32.5693 29.2198 -34.2503 32.6982C-37.1926 39.0807 -37.4424 45.4538 -35.4808 50.5413C-40.5698 48.5803 -46.9541 48.8301 -53.3385 51.7716C-56.8113 53.4584 -60.0214 55.6394 -62.8687 58.2465C-65.9596 61.142 -68.781 64.3123 -71.2978 67.7184C-73.8978 71.1872 -76.285 74.8779 -78.5981 78.5409C-80.9113 82.2038 -83.0949 85.8391 -85.3988 89.1875C-85.7932 89.9062 -86 90.7127 -86 91.5324C-86 92.3521 -85.7932 93.1586 -85.3988 93.8773C-83.0949 97.2257 -80.8465 100.852 -78.5981 104.524C-76.3498 108.196 -73.8978 111.924 -71.2978 115.337C-68.7688 118.727 -65.9349 121.879 -62.8316 124.753C-59.9872 127.364 -56.7766 129.546 -53.3014 131.228C-46.9171 134.17 -40.5328 134.42 -35.4438 132.468C-37.4054 137.546 -37.1648 143.929 -34.2132 150.311C-32.5293 153.785 -30.3474 156.995 -27.7364 159.838C-24.8644 162.941 -21.7147 165.774 -18.3265 168.302C-14.8567 170.901 -11.1649 173.288 -7.50087 175.6C-3.83683 177.913 -0.200542 180.105 3.13966 182.399C3.8602 182.793 4.66838 183 5.4898 183C6.31122 183 7.11947 182.793 7.84001 182.399C11.1802 180.105 14.8165 177.848 18.4805 175.6C22.1446 173.353 25.8826 170.901 29.3061 168.302C32.6993 165.776 35.8524 162.943 38.7253 159.838C41.3388 156.996 43.521 153.786 45.2021 150.311C48.1444 143.929 48.3943 137.546 46.4327 132.468C51.5217 134.42 57.906 134.179 64.2903 131.228C67.7655 129.546 70.9762 127.364 73.8206 124.753C76.9292 121.865 79.7662 118.698 82.2959 115.291C84.8959 111.822 87.2831 108.131 89.5963 104.468C91.9094 100.805 94.093 97.1794 96.3969 93.831C96.8085 93.1175 97.0165 92.3049 96.9984 91.4815C97.0205 90.6618 96.8155 89.8519 96.4062 89.1413ZM-27.5051 29.4515C-23.2997 23.8328 -18.1345 19.001 -12.2475 15.1788C-9.24037 13.1068 -6.11302 11.3031 -3.0874 9.56412L1.35391 7.07588C2.78806 6.29889 4.18519 5.51265 5.49907 4.71716C6.81294 5.51265 8.21007 6.29889 9.64423 7.07588L14.0947 9.56412C17.1111 11.3031 20.2385 13.1068 23.2456 15.1788C29.1345 18.9985 34.3001 23.8307 38.5032 29.4515C42.2505 34.6962 44.1658 40.2091 43.8882 45.0099C43.7546 47.386 43.0602 49.6967 41.8619 51.753C40.5145 53.9776 38.7783 55.9421 36.736 57.5528C34.7806 57.949 32.8031 58.227 30.8143 58.3852C33.6041 55.7646 35.7728 52.5537 37.1616 48.9873C37.82 47.1766 38.1794 45.271 38.2256 43.3449C38.2491 42.3418 38.181 41.3386 38.0221 40.3479C37.868 39.3014 37.6107 38.2728 37.2541 37.2769C35.3296 31.727 30.9253 26.769 25.4663 22.699C22.6702 20.6228 19.7536 18.714 16.7318 16.9826L7.56239 11.7841C6.9396 11.4089 6.22623 11.2105 5.49907 11.2105C4.7719 11.2105 4.05853 11.4089 3.43575 11.7841L-5.73364 16.9733C-8.76078 18.7058 -11.6834 20.6145 -14.4866 22.6898C-19.9549 26.7597 -24.3592 31.7362 -26.256 37.2769C-26.9158 39.2334 -27.2289 41.29 -27.1812 43.3541C-27.1297 45.2796 -26.7705 47.1845 -26.1172 48.9966C-24.7318 52.5598 -22.5662 55.7677 -19.7791 58.3852C-21.768 58.227 -23.7454 57.949 -25.7008 57.5528C-27.7431 55.9421 -29.4794 53.9776 -30.8268 51.753C-32.0209 49.6949 -32.715 47.3852 -32.8531 45.0099C-33.1677 40.2091 -31.2524 34.6962 -27.5051 29.4515ZM81.4632 91.4815C79.002 96.1712 76.6333 100.898 73.839 105.208C71.2588 109.407 67.9647 113.123 64.1053 116.188C62.1768 117.728 59.938 118.833 57.5424 119.427C55.1468 120.021 52.6511 120.09 50.2263 119.629C45.8128 118.704 41.9915 115.994 38.5958 112.442C38.6513 111.822 38.6883 111.193 38.753 110.592C38.8918 109.667 39.0029 108.742 39.1602 107.919C40.2726 109.266 41.7759 110.236 43.4627 110.694C44.6091 111.032 45.8332 111 46.9601 110.601C48.04 110.23 48.9542 109.49 49.5416 108.511C49.6653 108.308 49.7765 108.098 49.8747 107.882C51.0276 108.827 52.4561 109.373 53.9459 109.438C55.4356 109.503 56.9064 109.084 58.1373 108.242C59.5941 107.219 60.609 105.682 60.9779 103.941C61.1579 103.133 61.1861 102.299 61.0611 101.481C60.9607 100.676 60.7163 99.8957 60.3395 99.1775C62.1583 99.2233 63.9237 98.5599 65.2619 97.3275C65.9669 96.6375 66.5269 95.8135 66.9088 94.904C67.7599 92.7591 67.7599 90.3704 66.9088 88.2255C66.5258 87.3193 65.9659 86.4986 65.2619 85.8113C63.9211 84.5831 62.1575 83.9203 60.3395 83.9613C61.087 82.4919 61.3122 80.8119 60.9779 79.1976C60.6112 77.458 59.5955 75.9233 58.1373 74.9057C55.2968 72.9077 52.1324 73.6106 49.8747 75.2664C49.7766 75.0471 49.6653 74.834 49.5416 74.6281C49.2432 74.1506 48.8717 73.723 48.4405 73.3609C47.9954 73.0124 47.4992 72.7348 46.9694 72.5377C45.8425 72.0957 44.6034 72.0276 43.4349 72.3434C41.7535 72.8132 40.2536 73.7806 39.1324 75.1184C38.9751 74.2489 38.8641 73.3424 38.7345 72.4359C38.6605 71.8069 38.6235 71.1871 38.568 70.5859C41.9729 67.0062 45.785 64.296 50.1985 63.3987C52.6229 62.946 55.1161 63.0181 57.5102 63.6101C59.9044 64.202 62.1438 65.3001 64.0775 66.8304C67.9507 69.8801 71.2499 73.595 73.8206 77.8009C76.5963 82.1113 78.9742 86.8473 81.4354 91.537L81.4632 91.4815ZM35.7274 121.701C30.4562 120.842 25.0826 120.817 19.8037 121.627C17.3147 121.96 14.3168 122.182 11.7353 121.072C9.15385 119.962 7.10903 117.539 6.4891 113.302C9.01643 113.193 11.5055 112.646 13.845 111.683C14.651 113.222 15.8002 114.554 17.2037 115.578C17.8129 115.989 18.4721 116.322 19.1652 116.567C19.8252 116.777 20.5092 116.901 21.2008 116.937C22.4865 116.968 23.7652 116.739 24.9596 116.262C26.1539 115.785 27.2391 115.071 28.1495 114.162C29.0515 113.248 29.7616 112.162 30.2383 110.969C30.7149 109.776 30.9485 108.5 30.9253 107.216C30.886 106.524 30.7585 105.84 30.546 105.181C30.3056 104.487 29.9759 103.828 29.5652 103.22C28.5415 101.817 27.2087 100.668 25.6698 99.8619C26.6375 97.5087 27.1855 95.0042 27.289 92.462C31.5175 93.128 33.9694 95.126 35.052 97.7067C36.1345 100.287 35.9772 103.257 35.6164 105.773C34.8127 111.055 34.8502 116.431 35.7274 121.701ZM-24.6553 105.782C-24.9884 103.294 -25.2104 100.297 -24.1001 97.7252C-22.9898 95.1537 -20.5564 93.1003 -16.3279 92.4713C-16.2244 95.0135 -15.6764 97.518 -14.7087 99.8712C-16.2457 100.68 -17.5779 101.828 -18.604 103.229C-19.0147 103.837 -19.3444 104.496 -19.5848 105.19C-19.7974 105.849 -19.9249 106.533 -19.9642 107.225C-19.9953 108.51 -19.7654 109.789 -19.2883 110.983C-18.8112 112.177 -18.0968 113.261 -17.1884 114.172C-16.2745 115.075 -15.1887 115.786 -13.9952 116.263C-12.8016 116.739 -11.5247 116.972 -10.2397 116.947C-9.54474 116.907 -8.85761 116.78 -8.19482 116.567C-7.50409 116.327 -6.84778 115.997 -6.24253 115.587C-4.83698 114.566 -3.68732 113.233 -2.88382 111.693C-0.544392 112.655 1.94471 113.203 4.47204 113.311C3.8151 117.548 1.80724 119.999 -0.774246 121.081C-3.35573 122.164 -6.3258 122.006 -8.84252 121.636C-14.1215 120.826 -19.4951 120.851 -24.7663 121.71C-23.8891 116.44 -23.8516 111.064 -24.6553 105.782ZM-70.465 91.4815C-68.0038 86.801 -65.6352 82.0743 -62.8409 77.7638C-60.2614 73.5673 -56.9672 69.8544 -53.1071 66.7934C-51.1782 65.2545 -48.9391 64.1511 -46.5434 63.5587C-44.1478 62.9664 -41.6523 62.8991 -39.2282 63.3617C-34.8147 64.2867 -30.9933 66.9877 -27.5976 70.5489C-27.6531 71.1687 -27.6901 71.7976 -27.7549 72.3989C-27.8937 73.3239 -28.0047 74.2489 -28.162 75.0721C-29.2729 73.7454 -30.7654 72.7927 -32.4367 72.3434C-33.2781 72.085 -34.1695 72.0342 -35.0348 72.1953C-35.9001 72.3563 -36.7135 72.7246 -37.4054 73.2684C-37.8372 73.6361 -38.2114 74.0664 -38.5157 74.5449C-38.6394 74.7476 -38.7506 74.9577 -38.8488 75.1739C-41.1064 73.5274 -44.2708 72.8244 -47.1114 74.8224C-48.5696 75.84 -49.5853 77.3747 -49.952 79.1144C-50.2862 80.7287 -50.0611 82.4086 -49.3135 83.878C-51.1316 83.837 -52.8952 84.4998 -54.2359 85.728C-54.94 86.4153 -55.4999 87.2361 -55.8829 88.1423C-56.734 90.2871 -56.734 92.6759 -55.8829 94.8207C-55.501 95.7302 -54.941 96.5542 -54.2359 97.2442C-52.8978 98.4766 -51.1324 99.1401 -49.3135 99.0942C-49.6903 99.8124 -49.9348 100.593 -50.0353 101.397C-50.1601 102.216 -50.1318 103.05 -49.952 103.858C-49.5831 105.599 -48.5681 107.136 -47.1114 108.159C-45.8804 109.001 -44.4098 109.42 -42.92 109.355C-41.4302 109.29 -40.0017 108.744 -38.8488 107.798C-38.7506 108.015 -38.6394 108.225 -38.5157 108.427C-38.2199 108.909 -37.8481 109.341 -37.4147 109.704C-36.9695 110.052 -36.4733 110.33 -35.9435 110.527C-34.8131 110.927 -33.5848 110.956 -32.4367 110.61C-30.7556 110.14 -29.2559 109.173 -28.1342 107.835C-27.9769 108.705 -27.8659 109.611 -27.7271 110.518C-27.6624 111.147 -27.6254 111.776 -27.5698 112.368C-30.9748 115.938 -34.7869 118.658 -39.2004 119.546C-41.6246 120.003 -44.1189 119.933 -46.5137 119.341C-48.9085 118.749 -51.1477 117.648 -53.0794 116.114C-56.9526 113.064 -60.2518 109.35 -62.8224 105.144C-65.5982 100.833 -67.9761 96.0972 -70.4373 91.4075L-70.465 91.4815ZM-29.9663 80.2613C-31.7105 80.0301 -33.4776 80.0301 -35.2218 80.2613C-35.376 79.7168 -35.4813 79.1596 -35.5363 78.5964C-35.5849 78.0283 -35.5381 77.4561 -35.3976 76.9036C-35.1015 75.8676 -34.3057 75.1831 -32.7606 75.4976C-32.1883 75.5863 -31.648 75.8187 -31.1901 76.173C-30.7321 76.5273 -30.3716 76.9919 -30.1421 77.5233C-29.8162 78.399 -29.755 79.3512 -29.9663 80.2613ZM-43.4659 98.8629C-42.2332 100.099 -40.7592 101.069 -39.1356 101.712C-39.1452 101.786 -39.1452 101.86 -39.1356 101.934C-39.1745 102.569 -39.3622 103.187 -39.6837 103.736C-40.0051 104.286 -40.4513 104.752 -40.9862 105.097C-41.5513 105.475 -42.2197 105.668 -42.8992 105.65C-43.5786 105.631 -44.2357 105.403 -44.7798 104.996C-45.3263 104.612 -45.7435 104.071 -45.9765 103.445C-46.2094 102.819 -46.247 102.138 -46.0844 101.49C-45.9177 100.86 -45.5879 100.286 -45.1281 99.8248C-44.6683 99.3635 -44.095 99.0317 -43.4659 98.8629ZM-46.1677 94.1825C-46.72 94.645 -47.3803 94.9604 -48.0872 95.0995C-48.7941 95.2386 -49.5247 95.1967 -50.2111 94.978C-50.9351 94.7244 -51.5623 94.2522 -52.0061 93.6266C-52.4499 93.001 -52.6883 92.2531 -52.6883 91.4861C-52.6883 90.7192 -52.4499 89.9712 -52.0061 89.3457C-51.5623 88.7201 -50.9351 88.2479 -50.2111 87.9943C-49.5254 87.7742 -48.7953 87.731 -48.0884 87.8684C-47.3815 88.0059 -46.7208 88.3196 -46.1677 88.7805C-46.6486 90.5491 -46.6486 92.4139 -46.1677 94.1825ZM-46.1677 81.4823C-46.3253 80.8718 -46.2995 80.2284 -46.0936 79.6323C-45.8691 78.9716 -45.4376 78.4007 -44.863 78.0044C-44.318 77.5985 -43.6604 77.3716 -42.9809 77.355C-42.3015 77.3385 -41.6337 77.533 -41.0695 77.9119C-40.533 78.2556 -40.0857 78.7214 -39.764 79.2713C-39.4424 79.8212 -39.2556 80.4394 -39.2189 81.0753C-39.2277 81.146 -39.2277 81.2174 -39.2189 81.2881C-40.8407 81.9343 -42.314 82.9036 -43.5492 84.1371C-44.1799 83.9645 -44.7536 83.6279 -45.212 83.1615C-45.6703 82.6952 -45.9969 82.1158 -46.1584 81.4823H-46.1677ZM-35.5456 104.394C-35.4883 103.834 -35.38 103.28 -35.2218 102.739C-33.4804 102.965 -31.717 102.965 -29.9756 102.739C-29.7425 103.659 -29.804 104.63 -30.1514 105.514C-30.3841 106.045 -30.7452 106.51 -31.2023 106.866C-31.6594 107.223 -32.198 107.461 -32.7698 107.558C-33.0329 107.662 -33.3156 107.709 -33.5983 107.694C-33.8811 107.679 -34.1572 107.603 -34.4077 107.471C-34.6583 107.339 -34.8773 107.154 -35.0498 106.93C-35.2222 106.706 -35.3441 106.446 -35.4069 106.17C-35.5512 105.59 -35.5949 104.989 -35.5363 104.394H-35.5456ZM-28.4674 99.8342C-31.6078 100.364 -34.8353 99.9256 -37.72 98.5762C-39.1358 98.0078 -40.3489 97.0288 -41.2034 95.7653C-42.0579 94.5017 -42.5145 93.0114 -42.5145 91.4861C-42.5145 89.9609 -42.0579 88.4706 -41.2034 87.207C-40.3489 85.9435 -39.1358 84.9645 -37.72 84.3961C-34.838 83.0375 -31.6076 82.5983 -28.4674 83.1381C-28.2148 84.4981 -27.6925 85.7938 -26.9314 86.949C-28.9912 86.7434 -31.0712 86.9703 -33.0382 87.615C-33.8731 87.9188 -34.62 88.424 -35.2125 89.0858C-35.7681 89.7624 -36.0718 90.6107 -36.0718 91.4861C-36.0718 92.3615 -35.7681 93.2098 -35.2125 93.8865C-34.6184 94.5422 -33.876 95.0465 -33.0474 95.3572C-31.0763 95.9975 -28.9942 96.2242 -26.9314 96.0232C-27.6864 97.1806 -28.2053 98.4757 -28.4581 99.8342H-28.4674ZM-32.1684 91.5092C-32.1129 89.0765 -27.1072 89.2523 -24.6182 89.4558C-23.3535 90.3995 -21.9221 91.0961 -20.3991 91.5092C-21.9228 91.9205 -23.3546 92.6173 -24.6182 93.5627C-27.098 93.7477 -32.0944 93.9235 -32.1499 91.4815L-32.1684 91.5092ZM-24.7663 61.2897C-19.4955 62.1535 -14.1212 62.1784 -8.84252 61.3637C-6.35356 61.0307 -3.35573 60.8087 -0.774246 61.928C1.80724 63.0472 3.85211 65.4615 4.47204 69.6887C1.9453 69.8019 -0.543052 70.3495 -2.88382 71.3074C-3.69255 69.7709 -4.84127 68.439 -6.24253 67.4132C-6.85029 67.0013 -7.50985 66.6716 -8.20408 66.4327C-8.8637 66.2202 -9.54777 66.0928 -10.2397 66.0535C-11.5251 66.0245 -12.8032 66.2553 -13.9973 66.7321C-15.1913 67.209 -16.2767 67.922 -17.1884 68.8284C-18.0895 69.7439 -18.7991 70.8297 -19.2757 72.0224C-19.7523 73.2152 -19.9864 74.491 -19.9642 75.7751C-19.9258 76.47 -19.7983 77.157 -19.5848 77.8193C-19.3277 78.5026 -18.9824 79.1494 -18.5578 79.7433C-17.5341 81.1464 -16.2013 82.2953 -14.6624 83.1011C-15.6301 85.4543 -16.1781 87.9588 -16.2816 90.501C-20.5101 89.835 -22.962 87.837 -24.0446 85.2471C-25.1271 82.6571 -24.9698 79.6971 -24.609 77.1811C-23.8074 71.8955 -23.848 66.5164 -24.7293 61.2435L-24.7663 61.2897ZM35.6164 77.2089C35.9495 79.7064 36.1716 82.6941 35.0612 85.2748C33.9509 87.8555 31.5175 89.8997 27.289 90.5287C27.1855 87.9865 26.6375 85.482 25.6698 83.1288C27.2068 82.3203 28.5391 81.172 29.5652 79.7711C29.9758 79.166 30.3055 78.5099 30.546 77.8193C30.7585 77.1567 30.886 76.4699 30.9253 75.7751C30.9451 74.4945 30.7082 73.2228 30.2285 72.0351C29.7488 70.8475 29.0361 69.7679 28.1323 68.8601C27.2285 67.9522 26.152 67.2345 24.9663 66.7493C23.7806 66.2641 22.5097 66.0212 21.2285 66.0349C20.534 66.0711 19.8468 66.1954 19.1837 66.405C18.493 66.6453 17.8367 66.975 17.2314 67.3854C15.8301 68.4112 14.6814 69.7431 13.8727 71.2796C11.5319 70.3218 9.04358 69.7742 6.51683 69.6609C7.17377 65.4337 9.18163 62.9825 11.7631 61.9002C14.3446 60.818 17.3147 60.9752 19.8314 61.336C25.11 62.1507 30.4844 62.1257 35.7552 61.262C34.882 66.5298 34.8477 71.9025 35.6534 77.1811L35.6164 77.2089ZM24.9758 101.36C25.8638 101.97 26.5718 102.806 27.0259 103.782C27.48 104.759 27.6636 105.839 27.5574 106.91C27.3582 108.609 26.5911 110.191 25.3803 111.4C24.1695 112.609 22.586 113.374 20.8862 113.57C19.8147 113.675 18.7348 113.49 17.7586 113.036C16.7824 112.583 15.9455 111.876 15.3346 110.99C17.4047 109.942 19.2969 108.574 20.9417 106.938C22.5804 105.291 23.9537 103.4 25.0129 101.333L24.9758 101.36ZM22.1538 98.3635C20.3198 102.777 16.8092 106.284 12.3923 108.113C9.10549 109.471 5.48987 109.825 2.002 109.13C-1.48588 108.435 -4.68962 106.723 -7.20478 104.209C-9.50457 101.906 -11.136 99.0218 -11.925 95.8643C-12.714 92.7069 -12.631 89.3945 -11.6849 86.2805C-10.7389 83.1665 -8.96518 80.3675 -6.55297 78.182C-4.14076 75.9965 -1.1805 74.5065 2.01222 73.8708C5.20494 73.235 8.51039 73.4774 11.5761 74.5721C14.6419 75.6668 17.353 77.5728 19.4204 80.0868C21.4877 82.6008 22.8339 85.6285 23.3153 88.8472C23.7967 92.0659 23.3952 95.3549 22.1538 98.3635ZM10.0513 123.893C11.2109 124.646 12.5055 125.168 13.8634 125.429C14.402 128.567 13.9661 131.795 12.6143 134.679C12.0493 136.098 11.0713 137.315 9.80693 138.172C8.54255 139.029 7.04998 139.487 5.52222 139.487C3.99446 139.487 2.50184 139.029 1.23746 138.172C-0.0269223 137.315 -1.00491 136.098 -1.56996 134.679C-2.9266 131.797 -3.36582 128.568 -2.82831 125.429C-1.46788 125.176 -0.171752 124.654 0.983775 123.893C0.77868 125.955 1.00559 128.038 1.64999 130.007C1.9555 130.836 2.4608 131.576 3.12113 132.163C3.79575 132.719 4.64305 133.023 5.51759 133.023C6.39213 133.023 7.23938 132.719 7.91399 132.163C8.57471 131.573 9.08 130.83 9.38518 129.998C10.0234 128.03 10.244 125.951 10.0329 123.893H10.0513ZM16.741 126.937C17.6619 126.704 18.6327 126.765 19.5168 127.112C20.0481 127.345 20.513 127.706 20.87 128.163C21.2269 128.62 21.4646 129.158 21.5616 129.73C21.6662 129.994 21.7125 130.277 21.6976 130.56C21.6826 130.843 21.6066 131.12 21.4748 131.371C21.3431 131.622 21.1586 131.842 20.934 132.015C20.7095 132.189 20.4501 132.312 20.1737 132.375C19.6133 132.507 19.0359 132.551 18.462 132.505C17.8986 132.45 17.3412 132.345 16.7966 132.19C17.005 130.437 16.9801 128.664 16.7225 126.918L16.741 126.937ZM19.1282 138.036C19.4026 138.467 19.5766 138.953 19.6371 139.459C19.6977 139.966 19.6432 140.48 19.4778 140.962C19.3124 141.445 19.0405 141.884 18.682 142.247C18.3235 142.61 17.8878 142.888 17.4072 143.059C16.8114 143.267 16.1672 143.293 15.5567 143.133C14.918 142.96 14.3373 142.619 13.8752 142.146C13.413 141.673 13.0863 141.084 12.929 140.441C14.1628 139.207 15.1323 137.734 15.7787 136.112C15.8524 136.122 15.9271 136.122 16.0008 136.112C16.6324 136.163 17.2433 136.362 17.7835 136.693C18.3237 137.024 18.7781 137.478 19.1097 138.018L19.1282 138.036ZM9.01505 147.185C8.76139 147.908 8.28905 148.536 7.6633 148.979C7.03756 149.423 6.28937 149.661 5.52222 149.661C4.75507 149.661 4.00688 149.423 3.38113 148.979C2.75539 148.536 2.28299 147.908 2.02933 147.185C1.80749 146.499 1.76329 145.769 1.90085 145.062C2.0384 144.355 2.35319 143.695 2.81578 143.142C4.58317 143.636 6.45195 143.636 8.21934 143.142C8.67652 143.696 8.98729 144.355 9.12309 145.06C9.2589 145.764 9.21542 146.492 8.99659 147.175L9.01505 147.185ZM-5.73364 132.2C-6.27874 132.352 -6.83595 132.457 -7.39911 132.514C-7.96682 132.561 -8.5384 132.517 -9.09236 132.385C-9.368 132.319 -9.62647 132.195 -9.85062 132.022C-10.0748 131.848 -10.2595 131.629 -10.3925 131.379C-10.5255 131.129 -10.6037 130.853 -10.6221 130.571C-10.6404 130.288 -10.5983 130.004 -10.4987 129.739C-10.41 129.167 -10.1776 128.627 -9.82318 128.169C-9.4688 127.711 -9.00403 127.351 -8.47239 127.121C-7.5852 126.788 -6.61876 126.727 -5.6966 126.946C-5.94556 128.684 -5.96422 130.447 -5.75211 132.19L-5.73364 132.2ZM-8.10232 138.036C-7.75575 137.503 -7.28907 137.057 -6.73961 136.736C-6.19015 136.415 -5.57317 136.227 -4.93793 136.186C-4.86422 136.196 -4.78953 136.196 -4.71582 136.186C-4.07149 137.809 -3.10167 139.282 -1.86605 140.515C-2.02258 141.157 -2.34793 141.745 -2.80837 142.218C-3.2688 142.691 -3.84752 143.033 -4.48451 143.207C-5.09474 143.369 -5.7397 143.343 -6.33504 143.133C-6.99601 142.909 -7.56705 142.477 -7.96351 141.903C-8.39745 141.355 -8.64647 140.684 -8.67474 139.986C-8.703 139.288 -8.50903 138.599 -8.12078 138.018L-8.10232 138.036ZM5.49907 129.119C3.05637 129.119 3.2322 124.06 3.44501 121.572C4.38896 120.307 5.08582 118.876 5.49907 117.354C5.91046 118.874 6.60753 120.302 7.55313 121.562C7.76594 124.069 7.94176 129.073 5.49907 129.119ZM-4.34575 110.99C-4.95521 111.877 -5.79191 112.585 -6.76847 113.039C-7.74502 113.493 -8.8256 113.677 -9.89733 113.57C-11.5948 113.37 -13.1753 112.604 -14.384 111.396C-15.5926 110.187 -16.3589 108.607 -16.5592 106.91C-16.6654 105.839 -16.4819 104.759 -16.0278 103.782C-15.5737 102.806 -14.8657 101.97 -13.9777 101.36C-12.9214 103.427 -11.5512 105.318 -9.9158 106.966C-8.28018 108.589 -6.40084 109.947 -4.34575 110.99ZM-14.0148 81.6396C-14.9013 81.0289 -15.6081 80.1922 -16.062 79.2163C-16.516 78.2404 -16.7004 77.1608 -16.5962 76.0896C-16.399 74.3889 -15.6328 72.8048 -14.4218 71.5942C-13.2109 70.3836 -11.6262 69.6176 -9.92506 69.4204C-8.85257 69.3163 -7.77174 69.5016 -6.79529 69.9571C-5.81884 70.4127 -4.98251 71.1218 -4.37348 72.0104C-6.4344 73.0521 -8.31749 74.4133 -9.95285 76.0434C-11.5895 77.6864 -12.9599 79.5745 -14.0148 81.6396ZM0.96525 59.079C-0.186982 58.3247 -1.4757 57.8031 -2.82831 57.5435C-3.3657 54.405 -2.92984 51.1773 -1.57922 48.2936C-1.01066 46.8782 -0.0313437 45.6653 1.2326 44.8111C2.49654 43.9569 3.98729 43.5005 5.51296 43.5005C7.03862 43.5005 8.52937 43.9569 9.79332 44.8111C11.0573 45.6653 12.0365 46.8782 12.6051 48.2936C13.9515 51.1787 14.3779 54.4079 13.8264 57.5435C12.4673 57.8003 11.1719 58.322 10.0144 59.079C10.2201 57.0198 9.99312 54.9404 9.34814 52.974C9.04295 52.1427 8.53772 51.3993 7.877 50.8095C7.19821 50.2606 6.35358 49.9574 5.48054 49.9493C4.60545 49.9548 3.75908 50.2619 3.08414 50.8188C2.42381 51.4052 1.91845 52.1455 1.61295 52.974C0.97607 54.9421 0.755492 57.0211 0.96525 59.079ZM-5.72439 56.0265C-6.64528 56.2595 -7.61605 56.198 -8.50018 55.8508C-9.03235 55.6195 -9.49823 55.2589 -9.85537 54.8017C-10.2125 54.3445 -10.4496 53.8053 -10.545 53.2331C-10.6496 52.97 -10.6959 52.6874 -10.6808 52.4048C-10.6658 52.1221 -10.5898 51.8461 -10.4579 51.5956C-10.326 51.3452 -10.1415 51.1262 -9.91693 50.9538C-9.69239 50.7814 -9.43321 50.6596 -9.15713 50.5968C-8.59662 50.4658 -8.01966 50.419 -7.44536 50.4581C-6.88232 50.5206 -6.32533 50.6288 -5.7799 50.7818C-5.99287 52.5248 -5.97421 54.2884 -5.72439 56.0265ZM-8.11158 44.9266C-8.49262 44.3616 -8.68837 43.6922 -8.67179 43.011C-8.65522 42.3298 -8.42709 41.6706 -8.01902 41.1249C-7.62503 40.5502 -7.05275 40.1211 -6.39055 39.9039C-5.79566 39.6913 -5.14999 39.6654 -4.54002 39.8299C-3.90246 40.002 -3.32261 40.3415 -2.86055 40.8132C-2.39849 41.2849 -2.07108 41.8715 -1.9123 42.5124C-3.1461 43.7472 -4.11572 45.22 -4.76213 46.8413H-4.98418C-5.61785 46.7932 -6.23126 46.5964 -6.77463 46.2669C-7.31799 45.9375 -7.77603 45.4846 -8.11158 44.9451V44.9266ZM2.00154 35.7692C2.25521 35.0454 2.72761 34.4183 3.35335 33.9746C3.9791 33.531 4.72729 33.2926 5.49444 33.2926C6.26159 33.2926 7.00977 33.531 7.63552 33.9746C8.26126 34.4183 8.73366 35.0454 8.98733 35.7692C9.21004 36.4543 9.25469 37.1848 9.1171 37.892C8.97951 38.5991 8.66418 39.2597 8.20082 39.8114C6.43175 39.3306 4.56639 39.3306 2.79732 39.8114C2.33779 39.2612 2.02403 38.6043 1.88498 37.9012C1.74593 37.198 1.78601 36.4712 2.00154 35.7877V35.7692ZM16.7502 50.7633C17.294 50.6032 17.8517 50.4948 18.4158 50.4396C18.984 50.3955 19.5555 50.4423 20.109 50.5783C20.3843 50.643 20.6426 50.7658 20.8668 50.9382C21.0909 51.1106 21.2757 51.3289 21.4088 51.5784C21.5418 51.8278 21.6202 52.1028 21.6386 52.385C21.657 52.6671 21.615 52.9499 21.5154 53.2145C21.4281 53.7882 21.1963 54.3303 20.8419 54.7899C20.4874 55.2494 20.0219 55.6113 19.489 55.8415C18.602 56.1768 17.634 56.2349 16.7133 56.008C16.9553 54.2752 16.9677 52.5179 16.7502 50.7818V50.7633ZM19.1189 44.9173C18.7734 45.4521 18.3071 45.8982 17.7574 46.2195C17.2077 46.5409 16.5901 46.7285 15.9545 46.7673H15.7325C15.0861 45.146 14.1165 43.6732 12.8827 42.4384C13.0392 41.7969 13.3646 41.2091 13.825 40.7358C14.2855 40.2625 14.8642 39.921 15.5012 39.7466C16.1119 39.5891 16.7555 39.6148 17.3517 39.8207C18.0127 40.0451 18.5837 40.4765 18.9802 41.0509C19.4113 41.6005 19.657 42.2727 19.682 42.9708C19.7069 43.6689 19.5098 44.3568 19.1189 44.9358V44.9173ZM5.49907 53.8435C7.94176 53.899 7.76594 58.9032 7.55313 61.3915C6.60737 62.6581 5.91039 64.0925 5.49907 65.6187C5.08582 64.0961 4.38896 62.665 3.44501 61.4007C3.2322 58.9032 3.05637 53.899 5.49907 53.8435ZM15.3439 71.9826C15.9529 71.094 16.7892 70.3849 17.7657 69.9294C18.7422 69.4739 19.823 69.2885 20.8955 69.3927C22.595 69.5918 24.1774 70.3587 25.3865 71.5691C26.5956 72.7795 27.3606 74.3626 27.5574 76.0619C27.6616 77.1331 27.4771 78.2126 27.0232 79.1885C26.5693 80.1645 25.8624 81.0012 24.9758 81.6118C23.9298 79.5591 22.5721 77.6806 20.951 76.0434C19.3092 74.401 17.4166 73.0303 15.3439 71.9826ZM26.447 58.4223C25.8179 58.3668 25.1979 58.3298 24.5965 58.265C23.6713 58.1263 22.746 58.0152 21.9225 57.8672C23.269 56.7498 24.2382 55.2447 24.6983 53.5568C25.0368 52.4107 25.0044 51.1869 24.6058 50.0603C24.4098 49.5348 24.1353 49.0421 23.7915 48.5988C23.4309 48.1602 22.9993 47.785 22.5147 47.4888C22.3141 47.3587 22.1038 47.2442 21.8855 47.1466C22.8313 45.994 23.3776 44.5659 23.4427 43.0766C23.5078 41.5873 23.088 40.117 22.2463 38.8864C21.2228 37.4301 19.6856 36.4154 17.9439 36.0467C17.1351 35.8715 16.3014 35.8432 15.4826 35.9634C14.6773 36.0624 13.8967 36.3069 13.1787 36.6849C13.2203 34.8701 12.5571 33.1097 11.3282 31.7732C10.638 31.066 9.81397 30.5031 8.90403 30.1174C6.75855 29.2666 4.36913 29.2666 2.22365 30.1174C1.31642 30.5031 0.495327 31.066 -0.191329 31.7732C-1.42268 33.1082 -2.08632 34.8696 -2.04186 36.6849C-2.75922 36.3056 -3.54011 36.061 -4.34575 35.9634C-5.1645 35.8432 -5.99818 35.8715 -6.80693 36.0467C-8.54862 36.4154 -10.0859 37.4301 -11.1094 38.8864C-11.9511 40.117 -12.3709 41.5873 -12.3058 43.0766C-12.2408 44.5659 -11.6943 45.994 -10.7486 47.1466C-10.965 47.2479 -11.1751 47.3622 -11.3777 47.4888C-11.8602 47.7841 -12.2915 48.1559 -12.6546 48.5896C-13.0006 49.0347 -13.2753 49.5308 -13.4688 50.0603C-13.8675 51.1869 -13.8998 52.4107 -13.5613 53.5568C-13.0957 55.2396 -12.1273 56.7403 -10.7855 57.858C-11.6553 58.0153 -12.5621 58.1263 -13.4688 58.265C-14.098 58.3298 -14.7179 58.3668 -15.3194 58.4223C-18.8909 55.0183 -21.6112 51.2073 -22.4994 46.8043C-22.9553 44.3808 -22.8848 41.8876 -22.2925 39.4937C-21.7002 37.0998 -20.6001 34.8611 -19.0667 32.9295C-16.0135 29.0598 -12.2981 25.762 -8.09306 23.1892C-3.78133 20.4143 0.955999 18.0371 5.64709 15.5858C10.3289 18.0371 15.0663 20.405 19.378 23.1985C23.5779 25.778 27.2947 29.0712 30.3609 32.9295C31.9013 34.8574 33.0065 37.0955 33.6006 39.4904C34.1947 41.8853 34.2637 44.3803 33.8029 46.8043C32.7481 51.2166 30.0185 55.0275 26.4655 58.4685L26.447 58.4223ZM-15.4859 124.55C-14.8567 124.55 -14.2368 124.633 -13.6354 124.707C-12.7101 124.837 -11.7848 124.948 -10.9614 125.105C-12.3094 126.217 -13.2792 127.72 -13.7371 129.406C-13.9956 130.247 -14.0465 131.139 -13.8853 132.004C-13.7242 132.869 -13.3559 133.682 -12.8119 134.373C-12.4462 134.807 -12.0155 135.182 -11.535 135.483C-11.3314 135.613 -11.1187 135.715 -10.9058 135.826C-11.8516 136.978 -12.398 138.406 -12.4631 139.896C-12.5282 141.385 -12.1084 142.855 -11.2667 144.086C-10.2396 145.537 -8.70338 146.547 -6.9642 146.916C-5.35024 147.247 -3.67181 147.026 -2.19913 146.287C-2.23874 148.102 -1.57577 149.862 -0.348603 151.199C0.344071 151.903 1.1675 152.466 2.07558 152.855C4.22105 153.706 6.61053 153.706 8.75601 152.855C9.66136 152.466 10.4818 151.903 11.1709 151.199C12.4014 149.864 13.0649 148.103 13.0215 146.287C13.7394 146.664 14.5203 146.905 15.3254 147C16.1438 147.124 16.9784 147.096 17.7866 146.916C19.5258 146.547 21.062 145.537 22.089 144.086C22.93 142.853 23.3493 141.382 23.2843 139.891C23.2193 138.401 22.6733 136.971 21.7282 135.816C21.9445 135.718 22.1546 135.607 22.3573 135.483C22.8378 135.185 23.2686 134.814 23.6342 134.383C24.1769 133.688 24.5443 132.874 24.7054 132.008C24.8665 131.141 24.8164 130.249 24.5595 129.406C24.089 127.726 23.1214 126.226 21.7837 125.105C22.6534 124.948 23.5602 124.837 24.467 124.707C25.0961 124.633 25.7161 124.596 26.3175 124.55C29.889 127.954 32.6093 131.756 33.4976 136.168C33.9547 138.591 33.8847 141.085 33.2924 143.479C32.7001 145.873 31.5993 148.112 30.0648 150.043C27.0142 153.915 23.2983 157.213 19.0912 159.783C14.7795 162.558 10.0421 164.944 5.35105 167.396C0.669215 164.944 -4.06816 162.567 -8.37989 159.774C-12.5289 157.183 -16.1953 153.89 -19.2147 150.043C-20.7557 148.115 -21.8612 145.877 -22.4553 143.482C-23.0494 141.087 -23.1181 138.592 -22.6567 136.168C-21.7499 131.756 -19.0204 127.935 -15.4674 124.55H-15.4859ZM35.5794 93.535C34.3147 92.5913 32.8833 91.8946 31.3602 91.4815C32.884 91.0703 34.3157 90.3734 35.5794 89.428C38.0869 89.2152 43.0833 89.0395 43.1388 91.4815C43.1943 93.9235 38.0869 93.7477 35.5979 93.535H35.5794ZM44.0085 95.385C44.8381 95.0716 45.5806 94.5641 46.1737 93.905C46.7302 93.2306 47.0346 92.3835 47.0346 91.5092C47.0346 90.6349 46.7302 89.7879 46.1737 89.1135C45.5837 88.453 44.8401 87.9479 44.0085 87.6428C42.0384 86.998 39.9554 86.7712 37.8925 86.9768C38.6526 85.82 39.1776 84.5251 39.4377 83.1658C42.578 82.6267 45.8082 83.0658 48.6904 84.4238C50.1061 84.9922 51.3194 85.9712 52.1738 87.2348C53.0283 88.4983 53.4849 89.9886 53.4849 91.5139C53.4849 93.0391 53.0283 94.5294 52.1738 95.793C51.3194 97.0565 50.1061 98.0356 48.6904 98.604C45.8058 99.9539 42.5781 100.393 39.4377 99.8619C39.1848 98.4904 38.656 97.1844 37.8833 96.0232C39.9552 96.2291 42.0474 96.0024 44.027 95.3572L44.0085 95.385ZM41.1217 77.5419C41.3544 77.0108 41.7156 76.5459 42.1727 76.1891C42.6298 75.8322 43.1684 75.5946 43.7402 75.4976C44.004 75.3932 44.2872 75.3472 44.5705 75.3628C44.8538 75.3784 45.1303 75.4552 45.381 75.588C45.6316 75.7208 45.8505 75.9063 46.0225 76.1318C46.1945 76.3574 46.3155 76.6175 46.3772 76.8944C46.5177 77.45 46.5646 78.0253 46.516 78.5964C46.458 79.1599 46.3496 79.7171 46.1921 80.2613C44.451 80.03 42.687 80.03 40.9459 80.2613C40.7253 79.3475 40.7932 78.3878 41.1402 77.5141L41.1217 77.5419ZM57.138 101.518C57.2979 102.128 57.2721 102.772 57.064 103.368C56.8395 104.028 56.408 104.599 55.8334 104.996C55.2893 105.403 54.6322 105.631 53.9528 105.65C53.2733 105.668 52.6049 105.475 52.0398 105.097C51.5034 104.754 51.056 104.288 50.7344 103.738C50.4127 103.188 50.2259 102.57 50.1893 101.934C50.1989 101.86 50.1989 101.786 50.1893 101.712C51.8129 101.069 53.2868 100.099 54.5195 98.8629C55.152 99.0289 55.7293 99.3594 56.1925 99.8208C56.6557 100.282 56.9883 100.858 57.1565 101.49L57.138 101.518ZM57.138 94.2103C57.619 92.4417 57.619 90.5768 57.138 88.8083C57.6903 88.3458 58.3506 88.0304 59.0575 87.8913C59.7644 87.7522 60.495 87.794 61.1814 88.0128C61.9086 88.2644 62.5393 88.7364 62.9857 89.3631C63.4321 89.9897 63.672 90.7399 63.672 91.5092C63.672 92.2786 63.4321 93.0288 62.9857 93.6555C62.5393 94.2821 61.9086 94.7541 61.1814 95.0057C60.4967 95.2158 59.7701 95.2505 59.0685 95.1067C58.3668 94.9628 57.7126 94.645 57.1658 94.1825L57.138 94.2103ZM57.138 81.5009C56.9651 82.1394 56.6241 82.7198 56.1506 83.1819C55.677 83.6439 55.0882 83.9705 54.4455 84.1278C53.2103 82.8944 51.737 81.925 50.1152 81.2788C50.1241 81.2082 50.1241 81.1367 50.1152 81.0661C50.1519 80.4301 50.3387 79.812 50.6603 79.2621C50.982 78.7122 51.4293 78.2464 51.9658 77.9026C52.5295 77.5225 53.1976 77.3271 53.8774 77.3437C54.5571 77.3603 55.2149 77.5879 55.7594 77.9951C56.3343 78.389 56.7635 78.9611 56.9807 79.6231C57.2267 80.2074 57.288 80.8529 57.1565 81.4731L57.138 81.5009ZM46.516 104.422C46.5646 104.993 46.5177 105.568 46.3772 106.124C46.0811 107.151 45.2854 107.845 43.7402 107.521C43.1668 107.436 42.6249 107.204 42.1664 106.85C41.7079 106.495 41.3482 106.029 41.1217 105.495C40.7878 104.608 40.7266 103.642 40.9459 102.72C42.6904 102.947 44.4569 102.947 46.2014 102.72C46.3621 103.267 46.4736 103.828 46.5345 104.394L46.516 104.422ZM-34.241 127.843C-36.3032 129.035 -38.6169 129.726 -40.9954 129.859C-45.7975 130.137 -51.3029 128.222 -56.5491 124.476C-62.1715 120.274 -67.0051 115.11 -70.8259 109.223C-72.8985 106.217 -74.7028 103.099 -76.4515 100.075L-78.9312 95.6255C-79.7084 94.1917 -80.4949 92.8505 -81.2999 91.4815C-80.4949 90.168 -79.7084 88.7805 -78.9312 87.3376L-76.4515 82.8975C-74.7028 79.8728 -72.8985 76.7464 -70.8259 73.7401C-67.0044 67.8483 -62.1711 62.6782 -56.5491 58.4685C-51.3029 54.7685 -45.7975 52.8075 -40.9954 53.085C-38.6162 53.2217 -36.3025 53.9156 -34.241 55.1108C-32.0153 56.4608 -30.0502 58.1997 -28.4396 60.2445C-28.0465 62.1998 -27.7685 64.1766 -27.6069 66.1645C-30.2294 63.3744 -33.4407 61.2036 -37.0075 59.8098C-38.819 59.1523 -40.7251 58.793 -42.6516 58.746C-43.655 58.7225 -44.6585 58.7907 -45.6495 58.9495C-46.6954 59.108 -47.7239 59.365 -48.7213 59.7172C-54.2729 61.6412 -59.2324 66.0442 -63.3035 71.5017C-65.3834 74.2967 -67.2959 77.2125 -69.0309 80.2336C-70.7519 83.2861 -72.4729 86.3293 -74.2216 89.4095C-74.5856 90.0336 -74.7832 90.7407 -74.7953 91.463C-74.7819 92.188 -74.5844 92.8978 -74.2216 93.5258L-69.0309 102.702C-67.3023 105.728 -65.3928 108.647 -63.3128 111.443C-59.2694 116.937 -54.2637 121.368 -48.7213 123.218C-46.7673 123.877 -44.7133 124.19 -42.6516 124.143C-40.7225 124.092 -38.8141 123.732 -36.9983 123.079C-33.4348 121.693 -30.2262 119.528 -27.6069 116.743C-27.7652 118.731 -28.0432 120.708 -28.4396 122.663C-30.049 124.722 -32.0138 126.476 -34.241 127.843ZM38.5032 153.521C34.8021 158.775 29.2506 163.696 23.2456 167.784C20.2385 169.856 17.1111 171.66 14.0855 173.408L9.64423 175.887C8.21007 176.664 6.81294 177.45 5.49907 178.255C4.18519 177.45 2.78806 176.664 1.35391 175.887L-3.09661 173.408C-6.11297 171.66 -9.24037 169.856 -12.2475 167.784C-18.136 163.968 -23.3016 159.139 -27.5051 153.521C-31.2524 148.276 -33.1677 142.763 -32.8901 137.962C-32.7576 135.583 -32.0632 133.269 -30.8638 131.21C-29.5114 128.989 -27.7759 127.025 -25.7378 125.41C-23.7817 125.019 -21.8045 124.741 -19.8161 124.578C-22.6041 127.2 -24.7724 130.41 -26.1634 133.976C-26.8211 135.79 -27.1805 137.698 -27.2275 139.627C-27.2507 140.63 -27.1826 141.634 -27.024 142.624C-26.8688 143.671 -26.6115 144.699 -26.256 145.695C-24.3314 151.245 -19.9272 156.194 -14.4681 160.273C-11.6699 162.346 -8.75348 164.255 -5.73364 165.99L3.43575 171.179C4.0644 171.542 4.77353 171.742 5.49907 171.762C6.22508 171.745 6.93498 171.544 7.56239 171.179L16.7318 165.99C19.763 164.264 22.686 162.355 25.4847 160.273C30.953 156.203 35.3573 151.227 37.2541 145.695C37.9139 143.739 38.227 141.682 38.1794 139.618C38.1279 137.69 37.7687 135.782 37.1153 133.966C35.7252 130.406 33.5603 127.199 30.7773 124.578C32.7656 124.741 34.7428 125.019 36.6989 125.41C38.737 127.025 40.4726 128.989 41.8249 131.21C43.0204 133.271 43.7146 135.584 43.8513 137.962C44.1658 142.763 42.2505 148.276 38.5032 153.521ZM89.9294 95.6255L87.4497 100.093C85.7009 103.118 83.8966 106.244 81.824 109.241C78.0033 115.129 73.1697 120.293 67.5472 124.495C62.301 128.194 56.7957 130.155 51.9936 129.878C49.6294 129.732 47.3322 129.035 45.2854 127.843C43.0639 126.487 41.0998 124.749 39.484 122.709C39.0915 120.754 38.8135 118.777 38.6513 116.789C41.2743 119.576 44.4857 121.744 48.0519 123.135C49.8641 123.791 51.7695 124.153 53.6961 124.208C54.6996 124.223 55.7026 124.152 56.6939 123.995C57.7407 123.841 58.7696 123.584 59.7658 123.227C65.3174 121.313 70.2767 116.91 74.3479 111.443C76.4299 108.649 78.3424 105.733 80.0753 102.711C81.7963 99.6585 83.5173 96.6152 85.266 93.5442C85.6416 92.9234 85.84 92.2117 85.84 91.4861C85.84 90.7606 85.6416 90.0489 85.266 89.428L80.0753 80.2521C78.3489 77.2218 76.4393 74.2996 74.3572 71.5017C70.286 66.035 65.3081 61.632 59.7658 59.7357C57.8118 59.0768 55.7577 58.7638 53.6961 58.8107C51.7675 58.8669 49.8597 59.2259 48.0427 59.8745C44.4786 61.2641 41.27 63.432 38.6513 66.2199C38.8083 64.2316 39.0864 62.2545 39.484 60.3C41.0924 58.2531 43.0578 56.5139 45.2854 55.1663C47.3476 53.974 49.6613 53.2833 52.0398 53.1498C56.8419 52.863 62.3472 54.7778 67.5935 58.524C73.2138 62.7282 78.0471 67.8919 81.8703 73.7771C83.9429 76.7834 85.7472 79.9099 87.4959 82.9346C88.3379 84.4423 89.1614 85.9315 89.9756 87.3745C90.7898 88.8175 91.5393 90.205 92.3443 91.5185C91.493 92.8042 90.7066 94.1917 89.9294 95.6255Z" fill="white" fill-opacity="0.2"/>
</g>
<defs>
<clipPath id="clip0_58_345">
<rect width="350" height="183" fill="white"/>
</clipPath>
</defs>
</svg>
