<svg width="322" height="54" fill="none" xmlns="http://www.w3.org/2000/svg"><path d="M20.512 34.375c0-.554-.083-1.048-.247-1.482-.165-.45-.465-.861-.899-1.236-.434-.374-1.048-.748-1.842-1.123-.793-.39-1.834-.786-3.122-1.19a42.196 42.196 0 01-4.2-1.617 18.095 18.095 0 01-3.526-2.134c-1.033-.809-1.85-1.752-2.448-2.83-.584-1.078-.876-2.336-.876-3.774 0-1.392.307-2.65.92-3.773.614-1.123 1.475-2.082 2.583-2.875 1.109-.809 2.411-1.423 3.909-1.842 1.497-.434 3.144-.651 4.941-.651 2.396 0 4.5.426 6.312 1.28 1.826.838 3.249 2.021 4.267 3.549 1.018 1.512 1.527 3.272 1.527 5.278h-7.277c0-.883-.187-1.662-.561-2.336-.36-.689-.914-1.228-1.662-1.617-.734-.39-1.655-.584-2.763-.584-1.078 0-1.984.165-2.718.494-.719.315-1.265.749-1.64 1.303a3.277 3.277 0 00-.539 1.82c0 .523.135 1.002.405 1.437.284.419.689.816 1.213 1.19.539.36 1.197.704 1.976 1.033.779.33 1.67.644 2.673.944 1.752.554 3.302 1.168 4.65 1.841 1.362.674 2.508 1.438 3.436 2.291.928.854 1.625 1.82 2.089 2.898.479 1.078.718 2.298.718 3.661 0 1.453-.284 2.74-.853 3.863-.554 1.123-1.363 2.082-2.426 2.875-1.048.779-2.306 1.37-3.773 1.775-1.468.404-3.107.606-4.92.606-1.646 0-3.271-.21-4.873-.629a14.42 14.42 0 01-4.358-1.976 10.125 10.125 0 01-3.1-3.37c-.763-1.377-1.145-3.01-1.145-4.896h7.323c0 .988.142 1.827.426 2.516.285.674.69 1.22 1.213 1.64.54.419 1.19.718 1.954.898.764.18 1.617.27 2.56.27 1.094 0 1.977-.15 2.651-.45.689-.314 1.198-.741 1.528-1.28.329-.54.494-1.138.494-1.797zm25.2-17.856L37.269 43H29.45l12.107-32.703h4.941l-.786 6.222zM52.722 43l-8.468-26.481-.876-6.222h5.009L60.537 43h-7.816zm-.36-12.174v5.66H35.314v-5.66H52.36zm28.391-20.53h7.322V31.77c0 2.545-.539 4.686-1.617 6.423-1.063 1.737-2.545 3.048-4.447 3.931-1.902.883-4.103 1.325-6.604 1.325-2.515 0-4.732-.441-6.648-1.325-1.902-.883-3.4-2.194-4.492-3.93-1.079-1.738-1.618-3.879-1.618-6.425V10.297h7.345V31.77c0 1.407.21 2.56.63 3.458.433.884 1.055 1.535 1.863 1.955.809.404 1.782.606 2.92.606s2.104-.202 2.898-.606c.808-.42 1.415-1.071 1.819-1.955.42-.898.629-2.05.629-3.459V10.297zM103.662 43h-7.187l.044-5.66h7.143c1.632 0 3.01-.375 4.133-1.123 1.123-.764 1.976-1.887 2.56-3.37.584-1.497.876-3.316.876-5.457v-1.505c0-1.617-.164-3.04-.494-4.268-.329-1.243-.816-2.283-1.46-3.122a6.04 6.04 0 00-2.403-1.887c-.943-.419-2.029-.629-3.257-.629H96.34v-5.682h7.277c2.216 0 4.238.374 6.065 1.123 1.841.749 3.429 1.82 4.761 3.212 1.348 1.392 2.389 3.04 3.122 4.941.734 1.902 1.101 4.02 1.101 6.357v1.46c0 2.32-.367 4.44-1.101 6.356-.733 1.902-1.774 3.549-3.122 4.941a13.777 13.777 0 01-4.739 3.19c-1.827.749-3.841 1.123-6.042 1.123zm-3.032-32.703V43h-7.322V10.297h7.322zm30.3 0V43h-7.3V10.297h7.3z" fill="url(#paint0_linear_9_35)"/><path d="M163.961 37.34V43h-17.407v-5.66h17.407zm-14.914-27.043V43h-7.322V10.297h7.322zm12.668 13.162v5.48h-15.161v-5.48h15.161zm2.269-13.162v5.682h-17.43v-5.682h17.43zm9.77 0l5.75 11.14 5.75-11.14h8.356l-9.299 16.217L193.857 43h-8.423l-5.93-11.343L173.597 43h-8.445l9.568-16.486-9.321-16.217h8.355zm35.983 21.338h-8.221v-5.683h8.221c1.212 0 2.186-.202 2.919-.606.749-.405 1.296-.959 1.64-1.662.359-.72.539-1.528.539-2.426 0-.929-.18-1.79-.539-2.583a4.33 4.33 0 00-1.64-1.954c-.733-.494-1.707-.742-2.919-.742h-5.571V43h-7.322V10.297h12.893c2.605 0 4.836.472 6.693 1.415 1.872.943 3.302 2.239 4.29 3.886 1.003 1.632 1.505 3.504 1.505 5.615s-.502 3.945-1.505 5.503c-.988 1.557-2.418 2.77-4.29 3.639-1.857.853-4.088 1.28-6.693 1.28zm44.203-5.705v1.46c0 2.485-.345 4.716-1.034 6.693-.673 1.977-1.639 3.661-2.897 5.054a12.65 12.65 0 01-4.447 3.212c-1.707.733-3.602 1.1-5.683 1.1s-3.983-.367-5.705-1.1a13.097 13.097 0 01-4.492-3.212c-1.258-1.393-2.231-3.077-2.92-5.054-.689-1.977-1.033-4.208-1.033-6.693v-1.46c0-2.486.344-4.717 1.033-6.694.689-1.991 1.655-3.683 2.897-5.076a12.624 12.624 0 014.47-3.19c1.722-.748 3.624-1.122 5.705-1.122 2.082 0 3.983.374 5.705 1.123a12.411 12.411 0 014.448 3.19c1.257 1.392 2.231 3.084 2.919 5.075.689 1.977 1.034 4.208 1.034 6.694zm-7.39 1.46v-1.505c0-1.662-.15-3.13-.449-4.403-.3-1.287-.734-2.366-1.303-3.234-.569-.868-1.273-1.52-2.111-1.954-.839-.45-1.79-.674-2.853-.674-1.108 0-2.074.225-2.897.674-.824.434-1.52 1.086-2.089 1.954-.554.868-.981 1.947-1.28 3.234-.285 1.273-.427 2.74-.427 4.403v1.505c0 1.647.142 3.114.427 4.402.299 1.273.733 2.35 1.302 3.234.569.884 1.266 1.55 2.089 2 .839.449 1.812.673 2.92.673 1.063 0 2.007-.224 2.83-.674.839-.449 1.542-1.115 2.111-1.999.569-.883.996-1.961 1.281-3.234.299-1.288.449-2.755.449-4.402zm45.371 10.152V43h-22.596v-4.627l10.557-11.185c.988-1.139 1.774-2.142 2.358-3.01.599-.869 1.034-1.655 1.303-2.359.27-.718.404-1.377.404-1.976 0-.974-.157-1.797-.471-2.47-.3-.675-.741-1.191-1.325-1.55-.584-.36-1.296-.54-2.134-.54-.899 0-1.67.232-2.314.697-.644.464-1.138 1.108-1.482 1.931-.345.809-.517 1.73-.517 2.763h-7.052c0-1.992.479-3.804 1.437-5.436.958-1.647 2.299-2.957 4.021-3.93 1.722-.989 3.736-1.483 6.042-1.483 2.365 0 4.349.375 5.952 1.123 1.602.749 2.815 1.82 3.638 3.212.824 1.393 1.236 3.07 1.236 5.031 0 1.108-.18 2.18-.539 3.212a13.596 13.596 0 01-1.505 3.078 27.524 27.524 0 01-2.381 3.121 75.756 75.756 0 01-3.145 3.325l-4.941 5.615h13.454zm26.549 0V43h-22.596v-4.627l10.557-11.185c.988-1.139 1.774-2.142 2.358-3.01.599-.869 1.033-1.655 1.303-2.359.27-.718.404-1.377.404-1.976 0-.974-.157-1.797-.471-2.47-.3-.675-.742-1.191-1.326-1.55-.584-.36-1.295-.54-2.133-.54-.899 0-1.67.232-2.314.697-.644.464-1.138 1.108-1.482 1.931-.345.809-.517 1.73-.517 2.763H295.2c0-1.992.48-3.804 1.438-5.436.958-1.647 2.298-2.957 4.02-3.93 1.722-.989 3.736-1.483 6.042-1.483 2.366 0 4.35.375 5.953 1.123 1.602.749 2.815 1.82 3.638 3.212.824 1.393 1.236 3.07 1.236 5.031 0 1.108-.18 2.18-.54 3.212a13.591 13.591 0 01-1.504 3.078 27.524 27.524 0 01-2.381 3.121 76.36 76.36 0 01-3.145 3.325l-4.941 5.615h13.454z" fill="#fff"/><defs><linearGradient id="paint0_linear_9_35" x1="-11.046" y1="0" x2="135" y2="42.955" gradientUnits="userSpaceOnUse"><stop offset=".047" stop-color="#D1913C"/><stop offset=".539" stop-color="#FFD194"/><stop offset="1" stop-color="#D1913C"/></linearGradient></defs></svg>