<svg width="16" height="16" fill="none" xmlns="http://www.w3.org/2000/svg"><path d="M12.235 2.863a.935.935 0 00-.938.938c0 .52.417.938.938.938.52 0 .937-.418.937-.938a.935.935 0 00-.937-.938zM8.066 4.066A3.94 3.94 0 004.132 8a3.94 3.94 0 003.934 3.934A3.94 3.94 0 0012 8a3.93 3.93 0 00-3.934-3.934zm0 6.462a2.52 2.52 0 110-5.04 2.52 2.52 0 010 5.04z" fill="#fff"/><path d="M11.194 16H4.806A4.809 4.809 0 010 11.194V4.806A4.809 4.809 0 014.806 0h6.388A4.809 4.809 0 0116 4.806v6.388A4.813 4.813 0 0111.194 16zM4.814 1.516a3.302 3.302 0 00-3.298 3.297v6.388a3.302 3.302 0 003.297 3.297h6.388a3.302 3.302 0 003.297-3.296v-6.39a3.302 3.302 0 00-3.296-3.297h-6.39z" fill="#fff"/></svg>