<svg width="160" height="19" fill="none" xmlns="http://www.w3.org/2000/svg"><path d="M11.074 13.688c0-.399-.062-.75-.187-1.055-.117-.313-.328-.594-.633-.844-.297-.25-.711-.488-1.242-.715a17.347 17.347 0 00-1.992-.691 18.323 18.323 0 01-2.286-.832 7.984 7.984 0 01-1.746-1.067 4.208 4.208 0 01-1.113-1.37c-.258-.516-.387-1.106-.387-1.77 0-.664.137-1.278.41-1.84A4.305 4.305 0 013.07 2.039a5.68 5.68 0 011.84-.984C5.621.82 6.414.703 7.29.703c1.28 0 2.366.246 3.257.738.898.485 1.582 1.121 2.05 1.91.47.782.704 1.618.704 2.508h-2.25c0-.64-.137-1.207-.41-1.699-.274-.5-.688-.89-1.243-1.172-.554-.289-1.257-.433-2.109-.433-.805 0-1.469.12-1.992.363-.524.242-.914.57-1.172.984A2.69 2.69 0 003.75 5.32c0 .36.074.688.223.985.156.289.394.558.715.808.328.25.742.48 1.242.692.508.21 1.113.414 1.816.61.969.273 1.805.577 2.508.913.703.336 1.281.715 1.734 1.137a3.89 3.89 0 011.02 1.418c.226.523.34 1.117.34 1.781 0 .695-.141 1.324-.422 1.887a4.103 4.103 0 01-1.207 1.441c-.524.399-1.153.707-1.887.926-.727.21-1.539.316-2.437.316a8.43 8.43 0 01-2.332-.328 6.948 6.948 0 01-2.075-.984A5.158 5.158 0 011.5 15.305c-.367-.649-.55-1.399-.55-2.25H3.2c0 .586.112 1.09.34 1.511a3 3 0 00.925 1.032 4.32 4.32 0 001.348.609 6.595 6.595 0 001.582.188c.789 0 1.457-.11 2.003-.329.547-.218.961-.53 1.243-.937.289-.406.433-.887.433-1.441zm11.473-11.24L16.898 18H14.59L21.094.937h1.488l-.035 1.512zM27.28 18L21.62 2.45 21.585.937h1.488L29.602 18h-2.32zm-.293-6.316v1.851h-9.586v-1.851h9.586zM41.438.938h2.25V12.48c0 1.282-.286 2.348-.856 3.2a5.341 5.341 0 01-2.273 1.922c-.938.421-1.957.632-3.059.632-1.156 0-2.203-.21-3.14-.632a5.14 5.14 0 01-2.215-1.922c-.54-.852-.81-1.918-.81-3.2V.938h2.24V12.48c0 .891.163 1.625.491 2.204a3.079 3.079 0 001.371 1.289c.594.28 1.282.421 2.063.421.79 0 1.477-.14 2.063-.421a3.066 3.066 0 001.382-1.29c.328-.578.492-1.312.492-2.203V.938zM51.855 18h-3.562l.023-1.84h3.54c1.218 0 2.234-.254 3.046-.762.813-.515 1.422-1.234 1.828-2.156.415-.93.622-2.015.622-3.258V8.941c0-.976-.118-1.843-.352-2.601-.234-.766-.578-1.41-1.031-1.934A4.358 4.358 0 0054.305 3.2c-.649-.273-1.395-.41-2.239-.41h-3.843V.937h3.843c1.118 0 2.137.188 3.059.563a6.575 6.575 0 012.379 1.605c.672.696 1.187 1.54 1.547 2.532.36.984.539 2.093.539 3.328v1.02c0 1.234-.18 2.347-.54 3.34-.359.984-.878 1.823-1.558 2.519a6.804 6.804 0 01-2.437 1.605c-.946.367-2.012.551-3.2.551zM49.5.937V18h-2.262V.937H49.5zm15.914 0V18h-2.262V.937h2.262z" fill="#C3A67A"/><path d="M80.367 16.16V18h-9.035v-1.84h9.035zM71.79.937V18h-2.262V.937h2.262zm7.383 7.336v1.84h-7.84v-1.84h7.84zM80.25.938v1.851h-8.918V.937h8.918zm4.383 0l4.101 6.539 4.102-6.54h2.637l-5.391 8.45L95.602 18h-2.66l-4.208-6.668L84.527 18h-2.66l5.52-8.613-5.39-8.45h2.636zm19.875 10.37h-4.559v-1.84h4.559c.883 0 1.597-.14 2.144-.421.547-.281.946-.672 1.196-1.172.257-.5.386-1.07.386-1.71 0-.587-.129-1.138-.386-1.653-.25-.516-.649-.93-1.196-1.242-.547-.32-1.261-.48-2.144-.48h-4.031V18h-2.262V.937h6.293c1.289 0 2.379.223 3.269.668.891.446 1.567 1.063 2.028 1.852.461.781.691 1.676.691 2.684 0 1.093-.23 2.027-.691 2.8-.461.774-1.137 1.364-2.028 1.77-.89.398-1.98.598-3.269.598zm21.984-2.378v1.078c0 1.281-.16 2.43-.48 3.445-.321 1.016-.782 1.879-1.383 2.59a6 6 0 01-2.168 1.629c-.836.375-1.773.562-2.813.562-1.007 0-1.933-.187-2.777-.562a6.253 6.253 0 01-2.18-1.629c-.609-.711-1.082-1.574-1.418-2.59-.335-1.015-.503-2.164-.503-3.445V8.93c0-1.282.164-2.426.492-3.434.336-1.016.808-1.879 1.418-2.59a6.07 6.07 0 012.168-1.64c.843-.375 1.769-.563 2.777-.563 1.039 0 1.977.188 2.813.563a5.94 5.94 0 012.167 1.64c.61.711 1.075 1.574 1.395 2.59.328 1.008.492 2.152.492 3.434zm-2.238 1.078V8.906c0-1.015-.106-1.914-.316-2.695-.204-.781-.504-1.438-.903-1.969a3.89 3.89 0 00-1.465-1.207c-.57-.273-1.218-.41-1.945-.41-.703 0-1.34.137-1.91.41a4.037 4.037 0 00-1.453 1.207c-.399.531-.707 1.188-.926 1.969-.219.781-.328 1.68-.328 2.695v1.102c0 1.023.109 1.93.328 2.719.219.78.531 1.441.937 1.98a4.16 4.16 0 001.465 1.207c.571.274 1.207.41 1.91.41.735 0 1.387-.137 1.957-.41a3.822 3.822 0 001.442-1.207c.398-.539.699-1.2.902-1.98.203-.79.305-1.696.305-2.72zm22.195 6.21V18h-11.168v-1.559l5.59-6.222c.688-.766 1.219-1.414 1.594-1.946.383-.539.648-1.02.797-1.441a3.82 3.82 0 00.234-1.312 3.27 3.27 0 00-.351-1.524 2.64 2.64 0 00-1.008-1.101c-.446-.274-.985-.41-1.617-.41-.758 0-1.391.148-1.899.445a2.74 2.74 0 00-1.125 1.218c-.25.524-.375 1.125-.375 1.805h-2.168c0-.96.211-1.84.633-2.637.422-.796 1.047-1.43 1.875-1.898.828-.477 1.848-.715 3.059-.715 1.078 0 2 .192 2.765.574.766.375 1.352.907 1.758 1.594.414.68.621 1.477.621 2.39 0 .5-.086 1.009-.258 1.524a7.72 7.72 0 01-.691 1.524 11.79 11.79 0 01-1.02 1.5c-.383.492-.793.976-1.23 1.453l-4.57 4.957h8.554zm13.5 0V18h-11.168v-1.559l5.59-6.222c.688-.766 1.219-1.414 1.594-1.946.383-.539.648-1.02.797-1.441a3.82 3.82 0 00.234-1.312 3.27 3.27 0 00-.351-1.524 2.64 2.64 0 00-1.008-1.101c-.446-.274-.985-.41-1.617-.41-.758 0-1.391.148-1.899.445a2.74 2.74 0 00-1.125 1.218c-.25.524-.375 1.125-.375 1.805h-2.168c0-.96.211-1.84.633-2.637.422-.796 1.047-1.43 1.875-1.898.828-.477 1.848-.715 3.059-.715 1.078 0 2 .192 2.765.574.766.375 1.352.907 1.758 1.594.414.68.621 1.477.621 2.39 0 .5-.086 1.009-.258 1.524a7.72 7.72 0 01-.691 1.524 11.79 11.79 0 01-1.02 1.5c-.383.492-.793.976-1.23 1.453l-4.57 4.957h8.554z" fill="#3B3B3B"/></svg>