<svg width="203" height="202" fill="none" xmlns="http://www.w3.org/2000/svg"><path d="M179.639 163.709a110.827 110.827 0 0022.268-59.363c1.018-20.054-6.445-41.657-16.961-58.517-12.358-19.619-30.821-31.448-52.314-39.407-22.825-8.37-46.037-6.652-68.208 2.42h-.17c-19.142 7.547-35.158 19.352-46.183 36.89C7.482 62.665-.005 84.17 1.11 104.249a110.484 110.484 0 0020.28 57.041c12.116 16.933 29.538 27.263 48.898 34.375 37.46 13.788 85.097.048 109.351-31.956zm-51.562 18.409a66333.552 66333.552 0 00-21.613-56.703 508.32 508.32 0 002.423-6.362l6.203 2.806a42136.265 42136.265 0 0124.909 55.397l.145.217a87.648 87.648 0 01-11.97 5.056 3.727 3.727 0 00-.097-.339v-.072zm-110.66-63.476a87.4 87.4 0 01-1.115-5.467c6.809-2.419 13.57-4.838 20.305-7.572a4.836 4.836 0 000-9.144 621.714 621.714 0 00-20.426-7.62 88.13 88.13 0 011.042-5.515c.138.087.284.16.436.218l46.038 17.489-46.038 17.49-.242.121zm2.762-44.244h-.412a89.24 89.24 0 015.113-11.926h.194L80.56 87.34l2.787 6.216-6.373 2.42L20.18 74.398zm12.745-24.723c6.397 3.024 12.842 5.975 19.385 8.805a4.853 4.853 0 005.578-.914 4.835 4.835 0 00.915-5.569 601.146 601.146 0 00-8.795-19.352 86.52 86.52 0 014.604-3.193l20.135 44.8L29.847 54.15h-.17c1.163-1.403 2.108-2.927 3.247-4.402v-.073zm35.013-27.02c.34-.146.606-.315.897-.46.29-.146.533-.146.8-.267a69.364 69.364 0 015.112-1.959c7.22 18.885 14.425 37.77 21.614 56.654l-2.424 6.386-6.227-2.806-24.86-55.3c1.68-.773 3.376-1.499 5.088-2.176v-.073zm21.444-6.242c2.423 6.677 4.846 13.329 7.463 19.909a4.839 4.839 0 004.58 3.255 4.84 4.84 0 004.579-3.256 594.458 594.458 0 007.487-20.005c1.866.242 3.708.533 5.549.895l-.121.194a43689.123 43689.123 0 01-17.494 45.962L83.905 17.405c1.817-.315 3.635-.653 5.476-.92v-.072zm59.122 12.361c1.6 1.016 3.15 2.08 4.677 3.194a552.946 552.946 0 00-9.135 20.03 4.834 4.834 0 003.557 6.921 4.855 4.855 0 002.937-.439 571.904 571.904 0 0019.723-8.974 104.24 104.24 0 013.078 4.668l-.364.121-44.899 20.103 20.16-44.801c.104-.244.193-.495.266-.75v-.073zm29.271 33.698a98.349 98.349 0 014.846 11.926h-.17l-56.602 21.578-6.373-2.42 2.787-6.216 55.512-24.868zm8.795 26.392c-6.833 2.419-13.617 4.838-20.329 7.595a4.843 4.843 0 00-3.261 4.572 4.833 4.833 0 003.261 4.572c6.712 2.661 13.496 5.177 20.329 7.596a83.434 83.434 0 01-1.114 5.443l-.291-.121-46.038-17.49 46.038-17.49h.267c.484 1.767.799 3.58 1.138 5.395v-.072zm-8.795 50.8l-55.512-24.844c-.921-2.08-1.866-4.161-2.787-6.217l6.373-2.419 56.796 21.578a114.527 114.527 0 01-4.87 11.902zm-27.235 3.991a4.848 4.848 0 00-6.934 3.552 4.833 4.833 0 00.44 2.931c2.835 6.556 5.815 13.039 8.893 19.498a87.283 87.283 0 01-4.604 3.193 1.287 1.287 0 010-.291 27568.459 27568.459 0 01-20.16-44.8l44.899 20.102h.267a74.868 74.868 0 01-3.15 4.645 1018.296 1018.296 0 00-19.651-8.83zM99.8 104.708l-1.38-.604-.63-1.379-.607-1.621.606-1.62.63-1.38 1.381-.629 1.624-.604 1.623.604 1.381.63.606 1.378c.218.532.412 1.089.63 1.621-.218.532-.412 1.089-.63 1.621l-.606 1.379-1.381.604-1.623.629-1.624-.629zm40.538-80.385c0 .194-.218.339-.315.557a76954.2 76954.2 0 01-24.909 55.396l-6.203 2.806-2.423-6.386a39851.3 39851.3 0 0021.613-56.703c.052-.133.092-.27.122-.411a85.921 85.921 0 0112.115 4.741zM20.082 127.762l56.796-21.578 6.373 2.419c-.92 2.056-1.842 4.137-2.787 6.217l-55.487 24.844h-.146a107.676 107.676 0 01-4.749-11.902zm34.383 45.236a93.077 93.077 0 01-4.7-3.096c3.125-6.532 6.154-13.112 9.013-19.764a4.829 4.829 0 00-.916-5.569 4.848 4.848 0 00-5.578-.914c-6.663 2.879-13.254 5.903-19.796 9.023a86.737 86.737 0 01-3.077-4.693l.436-.145 44.899-20.102-20.135 44.8a2.586 2.586 0 00-.146.46zm8.238 4.5v-.17c8.32-18.449 16.623-36.914 24.91-55.396l6.227-2.806c.8 2.129 1.623 4.257 2.423 6.362-7.205 18.917-14.41 37.818-21.614 56.702.003.057.003.113 0 .17a104.81 104.81 0 01-11.946-4.862zm21.081 7.474a1.138 1.138 0 010-.242l17.519-45.961c5.847 15.32 11.679 30.641 17.494 45.961l.218.412c-1.817.411-3.659.75-5.525 1.04-2.423-6.846-4.846-13.619-7.608-20.368a4.85 4.85 0 00-9.159 0 618.925 618.925 0 00-7.608 20.271l-2.423-.435c-.873-.17-1.89-.436-2.908-.678z" stroke="url(#paint0_linear_58_99)" stroke-miterlimit="10"/><defs><linearGradient id="paint0_linear_58_99" x1="-58869.9" y1="-40779" x2="-41979.9" y2="-40779" gradientUnits="userSpaceOnUse"><stop stop-color="#A07913"/><stop offset="1" stop-color="#D0A043"/></linearGradient></defs></svg>